<svg width="16" height="17" viewBox="0 0 16 17" fill="none" xmlns="http://www.w3.org/2000/svg">
<g clip-path="url(#clip0_302_455)">
<path d="M5.37207 1.5V4.377M10.4551 1.5V4.377" stroke="white" stroke-width="1.5" stroke-linecap="round"/>
<path d="M14.3381 8.13201H1.49707L1.67607 3.56201L7.84007 3.11401L14.3371 3.56201V8.13201H14.3381Z" fill="black" fill-opacity="0.12"/>
<path d="M1.331 7.70199H14.571M1.224 12.573C1.407 14.204 2.732 15.498 4.371 15.577C5.55216 15.6333 6.7345 15.661 7.917 15.66C9.173 15.66 10.33 15.632 11.463 15.577C13.102 15.498 14.427 14.203 14.609 12.573C14.733 11.474 14.834 10.349 14.834 9.20299C14.834 8.05599 14.732 6.92999 14.609 5.83199C14.427 4.20099 13.102 2.90699 11.463 2.82799C10.2818 2.77169 9.0995 2.74402 7.917 2.74499C6.7345 2.74402 5.55216 2.77169 4.371 2.82799C2.732 2.90699 1.407 4.20199 1.224 5.83199C1.101 6.92999 1 8.05599 1 9.20299C1 10.349 1.102 11.475 1.224 12.573Z" stroke="white" stroke-width="1.5"/>
</g>
<defs>
<clipPath id="clip0_302_455">
<rect width="16" height="16" fill="white" transform="translate(0 0.5)"/>
</clipPath>
</defs>
</svg>
