<svg width="16" height="17" viewBox="0 0 16 17" fill="none" xmlns="http://www.w3.org/2000/svg">
<g clip-path="url(#clip0_302_466)">
<path d="M4.60208 2.38099C5.61794 1.77243 6.77226 1.43309 7.95584 1.39507C9.13943 1.35705 10.3131 1.6216 11.366 2.1637C12.4188 2.7058 13.3159 3.50753 13.9725 4.49305C14.629 5.47857 15.0233 6.61529 15.1181 7.79569C15.2128 8.97609 15.0048 10.1611 14.5138 11.2387C14.0228 12.3163 13.265 13.2509 12.3121 13.9539C11.3592 14.657 10.2426 15.1053 9.06815 15.2565C7.89364 15.4077 6.69999 15.2568 5.60008 14.818L1.79408 15.451C1.69681 15.4675 1.59693 15.4584 1.50421 15.4247C1.41149 15.391 1.3291 15.3338 1.2651 15.2587C1.20111 15.1837 1.15769 15.0933 1.13911 14.9964C1.12053 14.8995 1.12741 14.7994 1.15908 14.706L2.13308 11.802C1.23132 10.2207 0.984884 8.34901 1.44659 6.58816C1.9083 4.82731 3.04141 3.31739 4.60308 2.38199L4.60208 2.38099Z" fill="black" fill-opacity="0.12" stroke="white" stroke-width="1.5" stroke-linecap="round" stroke-linejoin="round"/>
<path d="M5.5 6.78601H11.072M5.5 10.214H9.714" stroke="white" stroke-width="1.5" stroke-linecap="round" stroke-linejoin="round"/>
</g>
<defs>
<clipPath id="clip0_302_466">
<rect width="16" height="16" fill="white" transform="translate(0 0.5)"/>
</clipPath>
</defs>
</svg>
