<svg width="16" height="17" viewBox="0 0 16 17" fill="none" xmlns="http://www.w3.org/2000/svg">
<g clip-path="url(#clip0_302_461)">
<path d="M12.2326 14.253C11.0069 15.1578 9.52307 15.6451 7.9996 15.643C6.47613 15.6451 4.99227 15.1578 3.7666 14.253C4.01399 13.3191 4.56327 12.4933 5.32889 11.904C6.09451 11.3148 7.0335 10.9953 7.9996 10.9953C8.9657 10.9953 9.90469 11.3148 10.6703 11.904C11.4359 12.4933 11.9852 13.3191 12.2326 14.253Z" stroke="white" stroke-width="1.5" stroke-linecap="round" stroke-linejoin="round"/>
<path fill-rule="evenodd" clip-rule="evenodd" d="M13.0501 13.55C12.3915 14.2334 11.6032 14.7788 10.7314 15.1541C9.85967 15.5295 8.92183 15.7273 7.97272 15.7361C7.02361 15.7449 6.08227 15.5644 5.2037 15.2052C4.32514 14.8461 3.52696 14.3154 2.85581 13.6443C2.18466 12.9731 1.654 12.1749 1.29483 11.2964C0.935667 10.4178 0.755201 9.47647 0.763977 8.52736C0.772754 7.57825 0.970598 6.64041 1.34595 5.76863C1.7213 4.89685 2.26663 4.10863 2.95008 3.45C4.29513 2.13711 6.10347 1.40728 7.98303 1.41874C9.86258 1.43021 11.6619 2.18204 12.9908 3.51125C14.3198 4.84045 15.0712 6.6399 15.0823 8.51946C15.0934 10.399 14.3632 12.2072 13.0501 13.552V13.55ZM9.55008 7.904C9.34666 8.10755 9.10514 8.26904 8.83931 8.37925C8.57349 8.48946 8.28855 8.54623 8.00078 8.54633C7.71301 8.54642 7.42805 8.48983 7.16215 8.37979C6.89625 8.26975 6.65463 8.10842 6.45108 7.905C6.24753 7.70158 6.08604 7.46007 5.97583 7.19424C5.86562 6.92841 5.80885 6.64348 5.80875 6.35571C5.80866 6.06794 5.86525 5.78297 5.97529 5.51707C6.08533 5.25117 6.24666 5.00955 6.45008 4.806C6.8609 4.39518 7.41809 4.16439 7.99908 4.16439C8.58006 4.16439 9.13726 4.39518 9.54808 4.806C9.9589 5.21682 10.1897 5.77401 10.1897 6.355C10.1897 6.93599 9.9589 7.49318 9.54808 7.904H9.55008Z" fill="black" fill-opacity="0.12" stroke="white" stroke-width="1.5" stroke-linecap="round" stroke-linejoin="round"/>
</g>
<defs>
<clipPath id="clip0_302_461">
<rect width="16" height="16" fill="white" transform="translate(0 0.5)"/>
</clipPath>
</defs>
</svg>
