<svg width="181" height="47" viewBox="0 0 181 47" fill="none" xmlns="http://www.w3.org/2000/svg">
<path d="M40.1704 19.348L40.1407 25.0357L40.2 30.9314H32.5752L32.5928 30.117L32.6104 27.0952L32.6641 21.6589L32.5928 15.6153L32.5752 14.7566H40.1842V17.8079C41.3191 16.6035 42.1087 15.8427 42.553 15.5266C43.5796 14.8056 44.546 14.445 45.4541 14.445C46.0067 14.445 46.4631 14.5634 46.8232 14.8009C47.1833 15.0376 47.3638 15.3389 47.3638 15.705C47.3638 15.9915 47.2555 16.2282 47.0379 16.4158C46.8204 16.6035 46.5492 16.6978 46.2233 16.6978C46.016 16.6978 45.7846 16.6386 45.5272 16.5203C45.0931 16.3132 44.733 16.2088 44.447 16.2088C43.736 16.2088 43.0501 16.451 42.3892 16.9344C41.7283 17.4188 40.9877 18.223 40.1685 19.3489L40.1704 19.348Z" fill="#FF00A2"/>
<path d="M58.4303 21.0664V19.2592C58.4201 18.0048 58.4007 17.2348 58.371 16.9483C58.3414 16.6617 58.2525 16.4057 58.1035 16.1783C57.7471 15.6255 56.9149 15.3491 55.6079 15.3491C53.5871 15.3491 52.0274 15.9814 50.9277 17.245C50.4824 17.759 50.1057 18.015 49.7984 18.015C49.5706 18.015 49.3716 17.9364 49.2041 17.7784C49.0356 17.6203 48.9514 17.4373 48.9514 17.2302C48.9514 16.6081 49.6882 15.9666 51.1619 15.3047C52.5661 14.6724 54.3804 14.3563 56.6058 14.3563C60.264 14.3563 62.8457 14.9091 64.349 16.0156C65.0016 16.4999 65.4265 17.0426 65.6246 17.6453C65.8227 18.248 65.9208 19.3091 65.9208 20.8298V26.7107C65.881 27.7968 65.9134 28.614 66.0171 29.1622C66.1208 29.7103 66.3559 30.3001 66.7215 30.9324H58.4145V29.3766C57.5046 29.9987 56.6021 30.4683 55.7079 30.7835C54.8127 31.0997 53.9306 31.2577 53.0604 31.2577C51.5868 31.2577 50.2769 30.8279 49.13 29.9691C47.6369 28.8432 46.8899 27.3818 46.8899 25.5848C46.8899 23.9949 47.4934 22.7109 48.7014 21.7338C50.1075 20.5783 51.8497 20.0006 53.9296 20.0006C54.7813 20.0006 55.5338 20.0773 56.1874 20.2298C56.8409 20.3833 57.5888 20.6615 58.4303 21.0664ZM58.4303 22.1331C57.1843 21.511 56.2198 21.1995 55.5375 21.1995C54.9636 21.1995 54.5878 21.4269 54.4101 21.8808C54.311 22.1276 54.262 22.844 54.262 24.0291V27.5694C54.2712 28.3496 54.2962 28.8238 54.336 28.9911C54.4351 29.445 54.7711 29.6724 55.345 29.6724C55.7995 29.6724 56.3068 29.5365 56.865 29.2648C57.4231 28.993 57.935 28.6353 58.4007 28.1906L58.4303 22.1322V22.1331Z" fill="#FF00A2"/>
<path d="M80.8138 15.3935C81.6645 15.8085 82.3764 16.3567 82.9494 17.0379C83.7112 17.9559 84.0916 19.018 84.0916 20.2224C84.0916 21.0812 83.8741 21.8965 83.439 22.6665C83.004 23.4365 82.3958 24.0836 81.6145 24.6068C80.1705 25.5848 78.4302 26.0729 76.3928 26.0729C75.4533 26.0729 74.5877 25.9887 73.7972 25.8214C73.0058 25.6532 72.2847 25.4018 71.6312 25.0662C71.1665 25.3824 70.9341 25.7031 70.9341 26.0294C70.9341 26.4149 71.1961 26.6423 71.72 26.7107C72.8567 26.8586 73.638 26.903 74.0638 26.8438L74.1527 26.829H78.5876L78.8098 26.8142C80.2936 26.7255 81.3609 26.9723 82.0135 27.5547C82.518 28.0187 82.7698 28.5622 82.7698 29.1843C82.7698 29.7075 82.5921 30.1818 82.2357 30.606C81.6423 31.3067 80.8416 31.658 79.8326 31.658C79.6447 31.658 79.4077 31.6478 79.1208 31.6284C79.2791 31.3816 79.3577 31.1893 79.3577 31.0507C79.3577 30.7447 79.081 30.5913 78.5274 30.5913C78.0526 30.5913 77.0593 30.6948 75.5458 30.9028C74.4878 31.0507 73.6121 31.1246 72.9206 31.1246C71.8329 31.1246 70.8888 30.8926 70.0871 30.4286C69.6224 30.1623 69.2568 29.7972 68.9893 29.3322C68.7227 28.8682 68.5885 28.3644 68.5885 27.8218C68.5885 27.2099 68.7495 26.6497 69.0707 26.1403C69.3919 25.6319 69.9288 25.0958 70.6805 24.5328C69.9779 24.0882 69.4345 23.5086 69.0485 22.7922C68.6625 22.0768 68.47 21.2984 68.47 20.4591C68.47 18.4643 69.4734 16.8743 71.4812 15.6893C72.9845 14.8009 74.809 14.3563 76.9547 14.3563C77.4296 14.3563 77.9239 14.3813 78.4386 14.4303C79.1402 14.4894 79.6493 14.519 79.9659 14.519C80.7472 14.519 81.3155 14.1733 81.6719 13.4818C81.8793 13.0668 82.1024 12.8597 82.3393 12.8597C82.5273 12.8597 82.6902 12.9217 82.829 13.0446C82.967 13.1685 83.0364 13.3182 83.0364 13.4966C83.0364 13.8525 82.8383 14.2001 82.443 14.5412C82.0478 14.8813 81.5035 15.1661 80.8111 15.3925L80.8138 15.3935ZM74.9839 17.0222V23.2877C74.9839 24.0383 75.0432 24.5023 75.1617 24.6798C75.3598 24.9664 75.7698 25.1097 76.3928 25.1097C76.9667 25.1097 77.35 24.9738 77.5425 24.702C77.735 24.4302 77.8313 23.895 77.8313 23.0945V17.0509C77.8313 16.3798 77.735 15.9305 77.5425 15.7031C77.35 15.4757 76.9714 15.362 76.4076 15.362C75.8439 15.362 75.4653 15.4757 75.2727 15.7031C75.0802 15.9305 74.9839 16.3696 74.9839 17.0213V17.0222Z" fill="#FF00A2"/>
<path d="M86.1393 27.4955C86.317 27.4955 86.5253 27.6286 86.7623 27.8958C87.5037 28.7055 88.4109 29.3544 89.4837 29.8434C90.5566 30.3324 91.6174 30.5765 92.6653 30.5765C93.8224 30.5765 94.4009 30.2261 94.4009 29.5245C94.4009 29.0799 94.1982 28.5789 93.7937 28.0206C93.3882 27.4622 92.4191 26.3585 90.8861 24.7103C88.957 22.6268 87.6713 21.0821 87.0289 20.0746C86.1782 18.7416 85.7533 17.4724 85.7533 16.2679C85.7533 14.4506 86.5642 12.9642 88.1859 11.8096C89.7781 10.6745 91.7405 10.106 94.0751 10.106C95.707 10.106 97.2048 10.4369 98.5692 11.0988C99.083 11.3558 99.5264 11.6516 99.8967 11.9871C100.268 12.3227 100.453 12.6046 100.453 12.8311C100.453 12.9402 100.401 13.0409 100.297 13.1343C100.194 13.2286 100.087 13.2748 99.979 13.2748C99.8106 13.2748 99.5634 13.1213 99.2376 12.8154C98.7035 12.3116 98.0009 11.8947 97.1317 11.5638C96.2615 11.2328 95.4256 11.0674 94.6249 11.0674C94.1306 11.0674 93.728 11.1737 93.416 11.3863C93.1041 11.5989 92.9485 11.8725 92.9485 12.209C92.9485 12.6139 93.1411 13.1084 93.5262 13.6908C93.9112 14.274 94.5638 15.0487 95.484 16.0165C98.3924 19.1067 100.172 21.1903 100.825 22.2663C101.507 23.4023 101.849 24.4977 101.849 25.5543C101.849 26.4528 101.606 27.3023 101.122 28.1019C100.637 28.9015 99.9651 29.5587 99.1052 30.0718C97.464 31.0498 95.4608 31.5378 93.0976 31.5378C90.9222 31.5378 89.0089 30.9749 87.3575 29.849C86.2004 29.0586 85.6218 28.4421 85.6218 27.9974C85.6218 27.869 85.6737 27.7534 85.7773 27.649C85.881 27.5454 86.0023 27.4937 86.1411 27.4937L86.1393 27.4955Z" fill="#FF00A2"/>
<path d="M104.473 14.7566H112.053L112.008 16.6968C113.007 15.8381 113.921 15.2326 114.753 14.8823C115.583 14.5319 116.498 14.3563 117.496 14.3563C119.543 14.3563 121.205 15.1171 122.48 16.6377C123.627 18.0002 124.201 19.7334 124.201 21.8373C124.201 24.079 123.543 25.9203 122.228 27.3624C121.012 28.6953 119.494 29.3618 117.674 29.3618C116.715 29.3618 115.761 29.1622 114.811 28.7619C113.861 28.3616 112.917 27.7617 111.978 26.9621L111.992 27.5103L112.007 29.4506L112.037 31.0655L112.052 31.6136H104.472L104.487 27.392L104.517 23.467L104.472 15.2761V14.7575L104.473 14.7566ZM112.008 18.0298V25.7623C112.73 26.4343 113.378 26.9399 113.951 27.2801C114.524 27.6212 115.024 27.7913 115.449 27.7913C115.844 27.7913 116.076 27.599 116.146 27.2136C116.165 27.0851 116.18 26.4186 116.19 25.2141V17.9706C116.19 17.1119 116.175 16.5979 116.146 16.4306C116.076 16.0156 115.869 15.8085 115.523 15.8085C115.078 15.8085 114.539 16.0082 113.906 16.4084C113.273 16.8087 112.639 17.3495 112.007 18.0307L112.008 18.0298Z" fill="#FF00A2"/>
<path d="M137.165 21.0664V19.2592C137.155 18.0048 137.136 17.2348 137.106 16.9483C137.077 16.6617 136.988 16.4057 136.839 16.1783C136.482 15.6255 135.65 15.3491 134.343 15.3491C132.322 15.3491 130.762 15.9814 129.663 17.245C129.218 17.759 128.841 18.015 128.533 18.015C128.306 18.015 128.107 17.9364 127.939 17.7784C127.771 17.6203 127.686 17.4373 127.686 17.2302C127.686 16.6081 128.423 15.9666 129.897 15.3047C131.301 14.6724 133.116 14.3563 135.341 14.3563C138.999 14.3563 141.581 14.9091 143.084 16.0156C143.737 16.4999 144.162 17.0426 144.36 17.6453C144.558 18.248 144.656 19.3091 144.656 20.8298V26.7107C144.616 27.7968 144.649 28.614 144.752 29.1622C144.856 29.7103 145.091 30.3001 145.457 30.9324H137.15V29.3766C136.24 29.9987 135.337 30.4683 134.443 30.7835C133.548 31.0997 132.666 31.2577 131.796 31.2577C130.322 31.2577 129.012 30.8279 127.865 29.9691C126.372 28.8432 125.625 27.3818 125.625 25.5848C125.625 23.9949 126.229 22.7109 127.437 21.7338C128.843 20.5783 130.585 20.0006 132.665 20.0006C133.516 20.0006 134.269 20.0773 134.922 20.2298C135.576 20.3833 136.324 20.6615 137.165 21.0664ZM137.165 22.1331C135.919 21.511 134.955 21.1995 134.273 21.1995C133.699 21.1995 133.323 21.4269 133.145 21.8808C133.046 22.1276 132.997 22.844 132.997 24.0291V27.5694C133.006 28.3496 133.031 28.8238 133.071 28.9911C133.17 29.445 133.506 29.6724 134.08 29.6724C134.535 29.6724 135.042 29.5365 135.6 29.2648C136.158 28.993 136.67 28.6353 137.136 28.1906L137.165 22.1322V22.1331Z" fill="#FF00A2"/>
<path d="M154.995 17.9706V27.8652L154.981 28.8137C154.981 29.4265 155.057 29.8333 155.21 30.0357C155.364 30.2381 155.672 30.3398 156.138 30.3398C157.304 30.3398 158.452 29.9821 159.579 29.2657C160.707 28.5502 161.626 27.5898 162.339 26.3844C162.556 26.0192 162.769 25.8362 162.977 25.8362C163.125 25.8362 163.261 25.9028 163.385 26.0359C163.509 26.169 163.57 26.3095 163.57 26.4583C163.57 26.8142 163.283 27.3152 162.71 27.9623C162.136 28.6094 161.469 29.189 160.708 29.7029C159.155 30.7401 157.494 31.2587 155.724 31.2587C153.301 31.2587 151.298 30.5081 149.716 29.0069C147.917 27.318 147.017 25.2492 147.017 22.8005C147.017 20.3519 147.967 18.1694 149.865 16.4907C151.458 15.069 153.42 14.3572 155.755 14.3572C157.613 14.3572 159.241 14.7972 160.635 15.6754C161.228 16.0507 161.712 16.4528 162.088 16.8826C162.464 17.3125 162.652 17.6748 162.652 17.9716C162.652 18.1195 162.597 18.2452 162.489 18.3496C162.38 18.4532 162.246 18.5049 162.088 18.5049C161.881 18.5049 161.619 18.2683 161.302 17.7941C160.848 17.1322 160.13 16.5573 159.151 16.0683C158.171 15.5793 157.247 15.3352 156.377 15.3352C155.793 15.3352 155.418 15.4979 155.249 15.8242C155.081 16.1505 154.997 16.866 154.997 17.9725L154.995 17.9706Z" fill="#FF00A2"/>
<path d="M171.06 23.3182V27.9105C171.06 28.7998 171.114 29.3618 171.223 29.5994C171.43 30.0533 171.92 30.2807 172.691 30.2807C173.838 30.2807 174.972 29.9673 176.095 29.3396C177.217 28.7129 178.189 27.8458 179.01 26.7403C179.277 26.3751 179.47 26.1431 179.589 26.0442C179.707 25.9453 179.836 25.8963 179.975 25.8963C180.143 25.8963 180.281 25.9582 180.39 26.0812C180.499 26.2051 180.553 26.3604 180.553 26.548C180.553 26.9631 180.222 27.5205 179.559 28.2221C178.689 29.1206 177.609 29.8517 176.318 30.4147C175.028 30.9776 173.769 31.2587 172.543 31.2587C170.438 31.2587 168.578 30.5524 166.966 29.1409C166.027 28.3117 165.305 27.2894 164.8 26.0747C164.355 25.008 164.133 23.9412 164.133 22.8754C164.133 21.8096 164.331 20.8187 164.726 19.7871C165.121 18.7554 165.666 17.8643 166.358 17.1137C167.159 16.2347 168.109 15.5534 169.206 15.0699C170.284 14.5957 171.411 14.3591 172.589 14.3591C174.418 14.3591 176.075 14.8971 177.558 15.974C179.872 17.6527 181.019 20.0866 181 23.2766H177.543L173.093 23.2914L171.061 23.321L171.06 23.3182ZM174.857 22.3402V18.0243C174.836 17.098 174.817 16.5443 174.798 16.3613C174.778 16.1792 174.709 16.0091 174.59 15.851C174.313 15.4665 173.75 15.2742 172.899 15.2742C172.048 15.2742 171.485 15.4961 171.267 15.9398C171.128 16.206 171.06 16.9002 171.06 18.0243V22.3402L172.869 22.3994L174.857 22.3402Z" fill="#FF00A2"/>
<path d="M87.2123 38.5668H85.6201V37.1849H90.3262V38.5668H88.7341V46.8613H87.2114V38.5668H87.2123Z" fill="white"/>
<path d="M91.6138 37.1849H93.1365V41.1246H94.7703V37.1849H96.2931V46.8613H94.7703V42.5065H93.1365V46.8613H91.6138V37.1849Z" fill="white"/>
<path d="M97.9814 37.1849H102.134V38.5668H99.5042V41.1246H101.594V42.5065H99.5042V45.4784H102.134V46.8604H97.9814V37.1839V37.1849Z" fill="white"/>
<path d="M106.329 37.1849H108.572C110.095 37.1849 110.842 38.0279 110.842 39.5762V40.5302C110.842 42.0785 110.095 42.9216 108.572 42.9216H107.852V46.8613H106.329V37.1849ZM108.572 41.5396C109.056 41.5396 109.32 41.3187 109.32 40.6273V39.4801C109.32 38.7887 109.057 38.5677 108.572 38.5677H107.852V41.5396H108.572Z" fill="white"/>
<path d="M112.226 37.1849H113.749V45.4794H116.254V46.8613H112.226V37.1849Z" fill="white"/>
<path d="M118.774 37.1849H120.837L122.415 46.8613H120.892L120.615 44.9395V44.9672H118.885L118.608 46.8613H117.197L118.775 37.1849H118.774ZM120.436 43.6546L119.757 38.8719H119.729L119.065 43.6546H120.435H120.436Z" fill="white"/>
<path d="M123.577 44.6216V39.4237C123.577 37.9309 124.352 37.0462 125.82 37.0462C127.288 37.0462 128.063 37.9309 128.063 39.4237V40.447H126.624V39.3276C126.624 38.6916 126.319 38.4291 125.863 38.4291C125.407 38.4291 125.102 38.6916 125.102 39.3276V44.7325C125.102 45.3685 125.407 45.6171 125.863 45.6171C126.319 45.6171 126.624 45.3685 126.624 44.7325V43.2535H128.063V44.6225C128.063 46.1154 127.288 47 125.82 47C124.352 47 123.577 46.1154 123.577 44.6225V44.6216Z" fill="white"/>
<path d="M129.53 37.1849H133.683V38.5668H131.053V41.1246H133.143V42.5065H131.053V45.4784H133.683V46.8604H129.53V37.1839V37.1849Z" fill="white"/>
<path d="M137.877 37.1849H141.906V38.5668H139.4V41.2623H141.366V42.6443H139.4V46.8604H137.877V37.1839V37.1849Z" fill="white"/>
<path d="M143.082 44.567V39.4801C143.082 37.9318 143.899 37.0471 145.394 37.0471C146.889 37.0471 147.705 37.9318 147.705 39.4801V44.567C147.705 46.1153 146.889 47 145.394 47C143.899 47 143.082 46.1153 143.082 44.567ZM146.183 44.6631V39.3821C146.183 38.6907 145.879 38.4282 145.395 38.4282C144.91 38.4282 144.605 38.6907 144.605 39.3821V44.6631C144.605 45.3546 144.91 45.6171 145.395 45.6171C145.88 45.6171 146.183 45.3546 146.183 44.6631Z" fill="white"/>
<path d="M149.284 37.1849H151.541C153.119 37.1849 153.797 37.9179 153.797 39.4108V40.0052C153.797 41.0007 153.478 41.6367 152.8 41.9131V41.9408C153.561 42.1756 153.811 42.8948 153.811 43.9865V45.6864C153.811 46.156 153.825 46.5017 153.976 46.8613H152.426C152.343 46.6127 152.287 46.4601 152.287 45.6726V43.9033C152.287 43.0048 152.024 42.7145 151.332 42.7145H150.806V46.8613H149.283V37.1849H149.284ZM151.36 41.3316C151.928 41.3316 152.274 41.083 152.274 40.3084V39.5624C152.274 38.8709 152.039 38.5668 151.499 38.5668H150.807V41.3316H151.36Z" fill="white"/>
<path d="M158.186 37.1849H160.511C162.034 37.1849 162.781 38.0279 162.781 39.5762V44.4699C162.781 46.0183 162.033 46.8613 160.511 46.8613H158.186V37.1849ZM160.483 45.4794C160.967 45.4794 161.258 45.2307 161.258 44.5393V39.5078C161.258 38.8164 160.967 38.5677 160.483 38.5677H159.708V45.4794H160.483Z" fill="white"/>
<path d="M164.359 37.1849H166.616C168.194 37.1849 168.871 37.9179 168.871 39.4108V40.0052C168.871 41.0007 168.553 41.6367 167.875 41.9131V41.9408C168.635 42.1756 168.885 42.8948 168.885 43.9865V45.6864C168.885 46.156 168.899 46.5017 169.051 46.8613H167.501C167.417 46.6127 167.362 46.4601 167.362 45.6726V43.9033C167.362 43.0048 167.099 42.7145 166.406 42.7145H165.881V46.8613H164.358V37.1849H164.359ZM166.436 41.3316C167.003 41.3316 167.35 41.083 167.35 40.3084V39.5624C167.35 38.8709 167.115 38.5668 166.575 38.5668H165.882V41.3316H166.436Z" fill="white"/>
<path d="M171.668 37.1849H173.73L175.309 46.8613H173.786L173.509 44.9395V44.9672H171.779L171.502 46.8613H170.091L171.669 37.1849H171.668ZM173.33 43.6546L172.651 38.8719H172.623L171.959 43.6546H173.329H173.33Z" fill="white"/>
<path d="M176.458 44.567V39.4801C176.458 37.9318 177.233 37.0471 178.728 37.0471C180.223 37.0471 180.998 37.9318 180.998 39.4801V40.3093H179.558V39.383C179.558 38.6916 179.254 38.4291 178.77 38.4291C178.286 38.4291 177.98 38.6916 177.98 39.383V44.677C177.98 45.3684 178.285 45.6171 178.77 45.6171C179.255 45.6171 179.558 45.3684 179.558 44.677V42.7829H178.797V41.401H180.999V44.567C180.999 46.1153 180.224 47 178.729 47C177.234 47 176.459 46.1153 176.459 44.567H176.458Z" fill="white"/>
<path d="M28.319 15.0672C26.7564 12.8449 24.7042 11.4926 22.1632 11.0082C21.1348 10.8104 19.6019 10.7124 17.5645 10.7124H14.2422L13.4471 10.7762C13.4332 10.7771 13.4193 10.779 13.4054 10.7808C11.3264 10.9943 9.78048 12.8089 9.79899 14.8962L9.85268 21.1552L9.80825 30.9314H17.3432C19.0243 30.9314 20.1119 30.9167 20.6062 30.8871C21.1005 30.8575 21.6643 30.7789 22.2974 30.6504C24.7496 30.1374 26.7379 28.8183 28.2606 26.695C29.526 24.9377 30.1592 22.9873 30.1592 20.8436C30.1592 18.7 29.5455 16.8143 28.3199 15.0672H28.319ZM27.8589 25.5247C26.8499 27.2136 25.4605 28.4375 23.6906 29.1982C22.9389 29.5245 22.2743 29.7344 21.6958 29.8277C21.1172 29.922 20.1656 29.9738 18.8401 29.983L18.7512 23.5687L18.8401 11.659L19.4177 11.6442C23.0417 11.6442 25.7771 13.0123 27.6238 15.7475C28.6605 17.2885 29.1789 18.9764 29.1789 20.8131C29.1789 22.502 28.7383 24.0716 27.8589 25.5238V25.5247Z" fill="#FF00A2"/>
<path d="M16.1224 0.626444C15.7327 0.00248503 14.9107 -0.187014 14.2859 0.202152C13.661 0.591317 13.4713 1.41217 13.861 2.03613C13.9397 2.16277 14.0378 2.27 14.147 2.35966L11.9106 5.80946L8.0968 3.78414C8.26712 3.39497 8.24861 2.93278 8.007 2.54546C7.6173 1.92151 6.7953 1.73201 6.17047 2.12117C5.54564 2.51034 5.35587 3.33119 5.74558 3.95515C5.98811 4.34339 6.39911 4.56339 6.82492 4.58003L6.98784 9.10951L2.65105 9.63734C2.62421 9.46448 2.56312 9.29531 2.46499 9.13724C2.07528 8.51329 1.25329 8.32379 0.628457 8.71295C0.00270081 9.10212 -0.187062 9.92297 0.201721 10.5469C0.59143 11.1709 1.41343 11.3604 2.03826 10.9712C2.22524 10.8547 2.37243 10.6995 2.47703 10.522L6.47501 12.9855C8.37542 9.92667 11.6301 7.75437 15.4865 7.38369C15.5253 7.37999 15.5642 7.37907 15.6031 7.37537L14.931 2.66009C15.1912 2.67211 15.4578 2.60832 15.6957 2.46042C16.3205 2.07126 16.5102 1.2504 16.1205 0.626444H16.1224Z" fill="#FFDF00"/>
</svg>
