<svg width="1440" height="80" viewBox="0 0 1440 80" fill="none" xmlns="http://www.w3.org/2000/svg">
<path d="M150.339 53.4574C151.283 53.3031 152.239 53.2285 153.197 53.2345C154.663 53.2345 155.737 53.5775 156.42 54.189C156.753 54.493 157.015 54.8657 157.188 55.2813C157.362 55.6968 157.443 56.1452 157.426 56.5953C157.448 57.043 157.381 57.4905 157.228 57.912C157.076 58.3334 156.841 58.7203 156.537 59.0501C155.754 59.8846 154.474 60.3104 153.025 60.3104C152.625 60.3228 152.226 60.2892 151.833 60.2104V64.8114H150.35L150.339 53.4574ZM151.822 58.9987C152.224 59.0898 152.636 59.1301 153.048 59.1187C154.84 59.1187 155.931 58.2471 155.931 56.661C155.931 55.1464 154.857 54.4119 153.219 54.4119C152.751 54.3987 152.282 54.439 151.822 54.532V58.9987Z" fill="#4CB2E2"/>
<path d="M165.359 59.4245H160.893V63.5683H165.871V64.8114H159.409V53.3203H165.614V54.5663H160.893V58.1985H165.359V59.4245Z" fill="#4CB2E2"/>
<path d="M170.252 54.5834H166.757V53.3203H175.276V54.5834H171.752V64.8114H170.252V54.5834Z" fill="#4CB2E2"/>
<path d="M179.951 63.0053C180.756 63.4873 181.674 63.7457 182.612 63.754C184.129 63.754 185.015 62.9538 185.015 61.7936C185.015 60.7219 184.401 60.1075 182.852 59.5074C180.974 58.8415 179.817 57.8698 179.817 56.2495C179.817 54.4605 181.3 53.1317 183.532 53.1317C184.413 53.1053 185.287 53.3019 186.072 53.7032L185.664 54.912C184.993 54.551 184.242 54.3634 183.48 54.3662C181.912 54.3662 181.317 55.3036 181.317 56.0809C181.317 57.1554 182.014 57.6841 183.603 58.2957C185.547 59.0473 186.535 59.9846 186.535 61.6735C186.535 63.4454 185.224 64.98 182.512 64.98C181.403 64.98 180.194 64.6571 179.58 64.2455L179.951 63.0053Z" fill="#4CB2E2"/>
<path d="M194.512 59.4245H190.045V63.5683H195.023V64.8114H188.562V53.3203H194.769V54.5663H190.045V58.1985H194.512V59.4245Z" fill="#4CB2E2"/>
<path d="M204.98 64.437C204.018 64.8321 202.983 65.0182 201.945 64.9828C198.707 64.9828 196.269 62.9367 196.269 59.1701C196.269 55.5722 198.707 53.1345 202.27 53.1345C203.699 53.1345 204.605 53.4403 204.997 53.646L204.639 54.8549C203.911 54.5274 203.12 54.3644 202.322 54.3776C199.627 54.3776 197.838 56.0923 197.838 59.1187C197.838 61.9307 199.455 63.7369 202.253 63.7369C203.085 63.7498 203.909 63.5871 204.674 63.2596L204.98 64.437Z" fill="#4CB2E2"/>
<path d="M208.32 53.3203V60.1246C208.32 62.6966 209.463 63.7883 210.998 63.7883C212.713 63.7883 213.796 62.6652 213.796 60.1246V53.3203H215.285V60.0218C215.285 63.5511 213.424 65 210.935 65C208.583 65 206.809 63.654 206.809 60.0903V53.3203H208.32Z" fill="#4CB2E2"/>
<path d="M217.857 53.4832C218.8 53.3144 219.756 53.234 220.714 53.2431C222.301 53.2431 223.324 53.5289 224.038 54.1833C224.335 54.4615 224.569 54.7999 224.725 55.176C224.881 55.552 224.955 55.957 224.941 56.3638C224.949 57.0215 224.742 57.6639 224.352 58.1932C223.961 58.7225 223.409 59.1097 222.778 59.2959V59.3473C223.664 59.656 224.192 60.4733 224.464 61.6678C224.841 63.2682 225.113 64.377 225.353 64.8114H223.818C223.629 64.4885 223.372 63.4997 223.049 62.0679C222.709 60.4818 222.095 59.8846 220.763 59.8331H219.363V64.8114H217.857V53.4832ZM219.34 58.7157H220.857C222.443 58.7157 223.449 57.8584 223.449 56.5353C223.449 55.0521 222.375 54.4034 220.809 54.3862C220.315 54.3723 219.822 54.4184 219.34 54.5234V58.7157Z" fill="#4CB2E2"/>
<path d="M228.525 53.3203V64.8114H227.042V53.3203H228.525Z" fill="#4CB2E2"/>
<path d="M233.289 54.5834H229.805V53.3203H238.313V54.5834H234.8V64.8114H233.289V54.5834Z" fill="#4CB2E2"/>
<path d="M242.625 64.8114V59.936L239.004 53.3203H240.693L242.314 56.4924C242.757 57.3497 243.097 58.0613 243.457 58.8615H243.491C243.817 58.1128 244.208 57.3612 244.651 56.4924L246.306 53.3203H247.992L244.14 59.9189V64.8114H242.625Z" fill="#4CB2E2"/>
<path d="M254.388 54.5834H250.893V53.3203H259.403V54.5834H255.888V64.8114H254.388V54.5834Z" fill="#4CB2E2"/>
<path d="M261.261 61.1992L260.066 64.8114H258.531L262.438 53.3203H264.23L268.154 64.8114H266.568L265.336 61.1992H261.261ZM265.027 60.0389L263.901 56.7296C263.647 55.9809 263.475 55.3007 263.307 54.6349H263.272C263.101 55.315 262.912 56.0151 262.701 56.7124L261.581 60.0389H265.027Z" fill="#4CB2E2"/>
<path d="M278.327 64.2998C277.195 64.7079 276.002 64.9215 274.798 64.9314C273.058 64.9314 271.626 64.4885 270.511 63.4139C269.522 62.4594 268.908 60.9248 268.908 59.1273C268.925 55.6979 271.28 53.1917 275.132 53.1917C276.111 53.1702 277.084 53.3502 277.99 53.7204L277.633 54.9321C276.833 54.5823 275.965 54.4135 275.092 54.4377C272.297 54.4377 270.471 56.178 270.471 59.0587C270.471 61.9393 272.229 63.6968 274.904 63.6968C275.878 63.6968 276.541 63.5597 276.884 63.3882V59.9589H274.546V58.7643H278.327V64.2998Z" fill="#4CB2E2"/>
<path d="M157.015 47.719H151.473V18.3782H157.015V47.719Z" fill="#FDD30F"/>
<path d="M169.172 36.4479V31.3268H177.602V33.8988C177.462 43.1209 174.481 47.7304 168.706 47.7304C162.79 47.7304 159.809 42.8408 159.809 33.0615C159.809 23.2822 162.79 18.3896 168.706 18.3896C173.55 18.3896 176.39 21.4618 177.279 27.6117H171.686C171.115 24.491 170.243 23.5136 168.706 23.5136C167.54 23.5136 166.705 24.2109 166.134 25.5627C165.622 26.9115 165.342 29.3807 165.342 33.0615C165.342 36.7423 165.628 39.2543 166.134 40.606C166.705 41.9577 167.531 42.6065 168.706 42.6065C170.569 42.6065 171.592 41.1604 171.966 36.4565L169.172 36.4479Z" fill="#FDD30F"/>
<path d="M185.938 47.719H180.397V18.3782H185.938V47.719Z" fill="#FDD30F"/>
<path d="M188.733 23.5022V18.3782H204.242V23.5022H199.258V47.719H193.717V23.5022H188.733Z" fill="#FDD30F"/>
<path d="M209.321 47.719H203.776L208.389 18.3782H216.911L221.523 47.719H215.979L215.285 43.3895H209.972L209.321 47.719ZM212.627 26.5286L210.809 38.2655H214.49L212.627 26.5286Z" fill="#FDD30F"/>
<path d="M223.386 47.719V18.3782H228.928V42.5979H237.964V47.719H223.386Z" fill="#FDD30F"/>
<path d="M241.039 23.8651V18.7412H256.548V23.8651H251.578V48.0848H246.023V23.8651H241.039Z" fill="#FDD30F"/>
<path d="M261.626 48.0848H256.082L260.695 18.7412H269.217L273.829 48.0848H268.285L267.582 43.7667H262.278L261.626 48.0848ZM264.933 26.9058L263.115 38.6227H266.796L264.933 26.9058Z" fill="#FDD30F"/>
<path d="M281.699 48.0848H276.155V18.7412H281.699V48.0848Z" fill="#FDD30F"/>
<path d="M284.96 48.0848V18.7412H290.501V42.9608H299.538V48.0848H284.96Z" fill="#FDD30F"/>
<path d="M309.591 48.0848C304.699 48.0848 301.672 45.5128 301.672 40.4917V38.4427H307.214V39.8859C307.214 41.9339 308.006 42.9589 309.591 42.9608C311.22 42.9608 312.012 42.1235 312.012 40.4917C312.012 38.8142 310.383 37.0452 308.334 35.5077C305.476 33.273 301.718 30.4323 301.718 26.2857C301.718 21.396 304.793 18.7412 309.591 18.7412C314.901 18.7412 317.556 21.4418 317.556 26.8001V28.3833H312.02V26.9373C312.02 24.8882 311.229 23.8651 309.6 23.8651C308.017 23.8651 307.224 24.6568 307.222 26.24C307.222 27.8689 308.854 29.455 310.857 30.9439C313.789 32.9929 317.61 35.9278 317.565 40.5374C317.565 45.5214 314.45 48.0848 309.591 48.0848Z" fill="#FDD30F"/>
<path d="M129.734 48.0534C128.054 48.0534 126.374 48.1105 124.696 48.0534C123.471 48.0027 122.309 47.4943 121.44 46.6285C120.572 45.7627 120.059 44.6025 120.005 43.3773C119.95 42.1521 120.357 40.951 121.145 40.0114C121.934 39.0718 123.046 38.462 124.262 38.3026C125.742 38.0912 126.871 38.477 127.279 40.2259C127.507 41.1573 128.079 41.9679 128.88 42.495C130.62 43.7095 132.492 44.0725 134.47 43.1208C135.002 42.8859 135.463 42.516 135.809 42.0479C136.154 41.5797 136.371 41.0295 136.439 40.4517C136.521 39.8515 136.859 39.5944 137.53 39.5458C138.979 39.4974 140.363 38.9364 141.437 37.9626C142.203 37.292 142.688 36.3568 142.794 35.3441C142.9 34.3314 142.619 33.316 142.008 32.5013C141.517 31.8069 141.437 31.3325 141.888 30.7867C143.626 28.5948 142.903 25.4655 139.905 24.1509C139.158 23.8601 138.376 23.668 137.579 23.5794C136.804 23.4593 136.55 23.2764 136.421 22.4934C136.347 22.0514 136.183 21.6292 135.941 21.2524C135.698 20.8756 135.381 20.5521 135.01 20.3015C132.635 18.5868 128.723 19.6328 127.491 22.2848C127.395 22.4721 127.323 22.6709 127.277 22.8763C126.991 24.4224 125.831 25.1026 124.162 24.7825C121.478 24.2652 119.778 22.0419 120.032 19.4356C120.284 16.895 122.43 15.026 125.11 15.0203C128.051 15.0203 130.992 14.9746 133.929 15.0203C137.99 15.0946 141.234 16.9093 143.755 20.0014C147.052 24.0423 148.195 28.7491 147.593 33.8674C147.038 38.577 145.055 42.5722 141.228 45.51C138.941 47.2923 136.095 48.2038 133.198 48.0819C132.055 48.0505 130.889 48.0819 129.734 48.0819V48.0534Z" fill="#FDD30F"/>
<path d="M132.446 31.9841C132.419 33.2836 131.958 34.5368 131.137 35.5449C129.594 37.4053 127.268 37.3224 125.839 35.3677C124.327 33.3015 124.287 29.9579 125.748 27.8518C127.302 25.6141 129.969 25.6656 131.449 27.9632C132.123 29.0092 132.452 30.1951 132.446 31.9841Z" fill="#4CB2E2"/>
<path d="M137.133 37.974C135.887 37.974 134.747 37.6511 133.841 36.7451C132.735 35.642 132.738 34.1731 133.841 33.0643C135.436 31.4182 138.836 31.4154 140.442 33.0643C141.674 34.3246 141.494 36.0679 140.011 37.1252C139.17 37.7155 138.159 38.0136 137.133 37.974Z" fill="#4CB2E2"/>
<path d="M136.647 31.2554C136.075 31.2395 135.512 31.1042 134.995 30.8581C134.477 30.6121 134.017 30.2607 133.644 29.8265C133.218 29.3513 132.994 28.7288 133.019 28.0911C133.045 27.4534 133.318 26.8509 133.781 26.4114C135.384 24.7511 138.659 24.6768 140.337 26.2628C141.671 27.5231 141.514 29.3549 139.971 30.4295C139.128 31.0039 138.182 31.2639 136.647 31.2554Z" fill="#4CB2E2"/>
<path d="M132.521 21.0102C133.012 21.1203 133.49 21.2792 133.949 21.4846C134.167 21.599 134.36 21.7559 134.516 21.946C134.671 22.1361 134.788 22.3556 134.857 22.5915C134.927 22.8273 134.948 23.0747 134.92 23.319C134.893 23.5633 134.816 23.7996 134.695 24.0138C133.838 25.7113 131.195 26.4371 129.603 25.4055C129.377 25.2702 129.182 25.0896 129.029 24.8751C128.876 24.6605 128.77 24.4167 128.716 24.159C128.662 23.9012 128.663 23.6351 128.717 23.3775C128.771 23.1199 128.878 22.8762 129.031 22.662C129.78 21.5303 130.895 21.0817 132.521 21.0102Z" fill="#4CB2E2"/>
<path d="M131.266 37.2081C132.569 37.2453 133.618 37.6482 134.392 38.6084C135.358 39.803 134.964 41.3147 133.509 41.832C132.845 42.0892 132.12 42.1521 131.421 42.0135C130.722 41.8749 130.076 41.5404 129.56 41.049C128.891 40.4774 128.497 39.7344 128.751 38.8142C129.006 37.894 129.717 37.491 130.58 37.2938C130.807 37.252 131.036 37.2234 131.266 37.2081Z" fill="#4CB2E2"/>
<rect x="1164" y="19" width="155" height="42" rx="21" fill="#4CB2E2"/>
<rect x="1164" y="19" width="155" height="42" rx="21" stroke="#FDD30F" stroke-width="2"/>
<path d="M1203.99 42.272V44H1196.18V32.608H1198.2V42.272H1203.99ZM1210.3 32.336C1211.9 32.336 1213.21 32.896 1214.22 34C1215.23 35.104 1215.74 36.544 1215.74 38.304C1215.74 40.08 1215.23 41.52 1214.22 42.624C1213.2 43.728 1211.88 44.272 1210.27 44.272C1208.64 44.272 1207.31 43.728 1206.3 42.624C1205.29 41.536 1204.8 40.096 1204.8 38.304C1204.8 36.576 1205.28 35.152 1206.27 34.032C1207.26 32.912 1208.6 32.336 1210.3 32.336ZM1210.27 34.016C1209.21 34.016 1208.38 34.416 1207.76 35.184C1207.12 35.952 1206.81 36.992 1206.81 38.272C1206.81 39.6 1207.12 40.656 1207.74 41.424C1208.36 42.208 1209.21 42.592 1210.3 42.592C1211.32 42.592 1212.16 42.208 1212.78 41.424C1213.4 40.64 1213.72 39.6 1213.72 38.288C1213.72 36.992 1213.4 35.952 1212.78 35.184C1212.16 34.416 1211.32 34.016 1210.27 34.016ZM1227.54 37.904V44H1226.26L1225.96 42.64C1225.05 43.728 1223.86 44.272 1222.41 44.272C1220.81 44.272 1219.5 43.728 1218.5 42.64C1217.51 41.552 1217.02 40.144 1217.02 38.384C1217.02 36.672 1217.51 35.248 1218.52 34.096C1219.51 32.944 1220.87 32.368 1222.58 32.368C1223.82 32.368 1224.89 32.72 1225.82 33.408C1226.74 34.112 1227.27 35.056 1227.4 36.24H1225.46C1225.34 35.568 1225.02 35.024 1224.5 34.64C1223.99 34.256 1223.34 34.048 1222.57 34.048C1221.46 34.048 1220.6 34.432 1219.98 35.2C1219.34 35.968 1219.03 37.024 1219.03 38.352C1219.03 39.696 1219.34 40.752 1219.98 41.52C1220.62 42.288 1221.5 42.656 1222.63 42.656C1223.62 42.656 1224.38 42.352 1224.92 41.728C1225.46 41.12 1225.74 40.352 1225.74 39.44H1222.66V37.904H1227.54ZM1231.72 32.608V44H1229.7V32.608H1231.72ZM1243.37 32.608V44H1241.31L1235.99 35.616V44H1234.11V32.608H1236.2L1241.45 41.008V32.608H1243.37ZM1259.37 32.608V44H1257.31L1251.99 35.616V44H1250.11V32.608H1252.2L1257.45 41.008V32.608H1259.37ZM1266.6 32.336C1268.2 32.336 1269.51 32.896 1270.52 34C1271.52 35.104 1272.04 36.544 1272.04 38.304C1272.04 40.08 1271.52 41.52 1270.52 42.624C1269.49 43.728 1268.18 44.272 1266.56 44.272C1264.93 44.272 1263.6 43.728 1262.6 42.624C1261.59 41.536 1261.09 40.096 1261.09 38.304C1261.09 36.576 1261.57 35.152 1262.56 34.032C1263.56 32.912 1264.9 32.336 1266.6 32.336ZM1266.56 34.016C1265.51 34.016 1264.68 34.416 1264.05 35.184C1263.41 35.952 1263.11 36.992 1263.11 38.272C1263.11 39.6 1263.41 40.656 1264.04 41.424C1264.66 42.208 1265.51 42.592 1266.6 42.592C1267.62 42.592 1268.45 42.208 1269.08 41.424C1269.7 40.64 1270.02 39.6 1270.02 38.288C1270.02 36.992 1269.7 35.952 1269.08 35.184C1268.45 34.416 1267.62 34.016 1266.56 34.016ZM1272.77 32.608H1274.8L1276.88 41.28L1279.22 32.608H1281.25L1283.5 41.28L1285.65 32.608H1287.68L1284.53 44H1282.5L1280.19 35.248L1277.84 44H1275.78L1272.77 32.608Z" fill="white"/>
<rect x="386" y="15.5" width="219" height="48" rx="24" fill="#4CB2E2"/>
<path d="M429.248 37.34L429.232 43.5H427.648L427.408 42.204C426.56 43.26 425.424 43.772 423.984 43.772C422.4 43.772 421.104 43.228 420.112 42.124C419.12 41.036 418.624 39.612 418.624 37.852C418.624 36.092 419.152 34.668 420.192 33.548C421.248 32.428 422.592 31.868 424.224 31.868C425.536 31.868 426.624 32.236 427.52 32.972C428.416 33.708 428.944 34.668 429.088 35.852H426.672C426.56 35.26 426.288 34.796 425.84 34.46C425.408 34.14 424.864 33.964 424.208 33.964C423.248 33.964 422.512 34.316 421.968 35.004C421.424 35.692 421.152 36.636 421.152 37.852C421.152 39.1 421.424 40.06 421.968 40.748C422.512 41.436 423.296 41.772 424.288 41.772C425.056 41.772 425.696 41.548 426.208 41.068C426.704 40.588 426.976 39.964 427.008 39.196H424.464V37.34H429.248ZM439.789 32.108V34.156H433.725V36.636H439.293V38.604H433.725V41.404H439.901V43.5H431.245V32.108H439.789ZM450.084 32.108V34.236H446.66V43.5H444.148V34.236H440.724V32.108H450.084ZM465.566 32.108L461.326 39.116V43.5H458.862V39.068L454.606 32.108H457.454L460.11 36.668L462.798 32.108H465.566ZM471.678 31.836C473.342 31.836 474.686 32.396 475.71 33.5C476.734 34.604 477.262 36.044 477.262 37.82C477.262 39.612 476.734 41.052 475.71 42.14C474.686 43.228 473.326 43.772 471.662 43.772C469.966 43.772 468.606 43.228 467.582 42.14C466.542 41.052 466.03 39.612 466.03 37.82C466.03 36.028 466.542 34.572 467.566 33.484C468.59 32.396 469.966 31.836 471.678 31.836ZM471.646 33.884C470.702 33.884 469.95 34.252 469.39 34.956C468.83 35.66 468.542 36.604 468.542 37.788C468.542 39.004 468.83 39.964 469.374 40.668C469.934 41.356 470.702 41.708 471.678 41.724C472.622 41.724 473.374 41.372 473.918 40.668C474.462 39.964 474.734 39.004 474.734 37.788C474.734 36.588 474.446 35.644 473.902 34.94C473.342 34.236 472.59 33.884 471.646 33.884ZM488.675 32.108V38.956C488.675 40.588 488.275 41.804 487.491 42.572C486.707 43.34 485.491 43.724 483.827 43.724C482.131 43.724 480.899 43.34 480.099 42.556C479.299 41.772 478.915 40.556 478.915 38.924V32.108H481.411V38.924C481.411 39.852 481.587 40.54 481.939 40.988C482.291 41.436 482.931 41.66 483.859 41.66C484.755 41.66 485.363 41.436 485.683 40.988C486.003 40.54 486.179 39.852 486.179 38.924V32.108H488.675ZM490.934 32.108L496.598 32.124C497.718 32.124 498.646 32.38 499.366 32.924C500.07 33.452 500.438 34.268 500.438 35.356C500.438 36.012 500.278 36.588 499.958 37.084C499.638 37.58 499.19 37.932 498.63 38.156C499.606 38.348 500.166 39.244 500.31 40.812C500.31 40.86 500.31 41.02 500.342 41.308C500.358 41.58 500.374 41.804 500.406 41.964C500.422 42.124 500.454 42.332 500.486 42.572C500.518 42.796 500.566 43.004 500.63 43.164C500.694 43.324 500.758 43.436 500.854 43.516H498.262C498.166 43.34 498.102 43.116 498.07 42.86C498.022 42.604 497.99 42.268 497.958 41.852C497.926 41.436 497.91 41.212 497.91 41.164C497.814 40.364 497.622 39.82 497.302 39.5C496.982 39.196 496.438 39.036 495.638 39.036H493.414V43.5H490.934V32.108ZM493.414 34.092V37.244H495.782C496.47 37.244 497.014 37.132 497.398 36.908C497.782 36.684 497.99 36.268 497.99 35.628C497.99 35.02 497.798 34.62 497.414 34.412C497.03 34.188 496.534 34.092 495.894 34.092H493.414ZM506.854 32.108H511.766C513.046 32.108 514.054 32.428 514.806 33.036C515.558 33.644 515.942 34.556 515.942 35.772C515.942 36.972 515.558 37.884 514.822 38.492C514.07 39.1 513.094 39.404 511.894 39.404H509.334V43.5H506.854V32.108ZM509.334 34.156V37.436H511.558C512.854 37.436 513.51 36.892 513.51 35.804C513.51 34.716 512.854 34.156 511.574 34.156H509.334ZM526.054 32.108V34.156H519.99V36.636H525.558V38.604H519.99V41.404H526.166V43.5H517.51V32.108H526.054ZM536.349 32.108V34.236H532.925V43.5H530.413V34.236H526.989V32.108H536.349ZM550.584 32.108V34.236H547.16V43.5H544.648V34.236H541.224V32.108H550.584ZM556.377 32.092L560.713 43.5H558.089L557.193 40.956H552.953L552.025 43.5H549.465L553.801 32.092H556.377ZM556.585 39.132L555.081 34.892L553.561 39.132H556.585ZM571.811 37.34L571.795 43.5H570.211L569.97 42.204C569.123 43.26 567.987 43.772 566.547 43.772C564.963 43.772 563.667 43.228 562.674 42.124C561.683 41.036 561.187 39.612 561.187 37.852C561.187 36.092 561.715 34.668 562.755 33.548C563.811 32.428 565.155 31.868 566.787 31.868C568.099 31.868 569.187 32.236 570.083 32.972C570.979 33.708 571.507 34.668 571.651 35.852H569.235C569.123 35.26 568.851 34.796 568.403 34.46C567.971 34.14 567.427 33.964 566.771 33.964C565.811 33.964 565.075 34.316 564.531 35.004C563.987 35.692 563.715 36.636 563.715 37.852C563.715 39.1 563.987 40.06 564.531 40.748C565.075 41.436 565.859 41.772 566.851 41.772C567.619 41.772 568.259 41.548 568.771 41.068C569.267 40.588 569.539 39.964 569.571 39.196H567.027V37.34H571.811Z" fill="white"/>
<path d="M663.752 32.108V43.5H661.256V38.588H656.6V43.5H654.104V32.108H656.6V36.396H661.256V32.108H663.752ZM671.115 31.836C672.779 31.836 674.123 32.396 675.147 33.5C676.171 34.604 676.699 36.044 676.699 37.82C676.699 39.612 676.171 41.052 675.147 42.14C674.123 43.228 672.763 43.772 671.099 43.772C669.403 43.772 668.043 43.228 667.019 42.14C665.979 41.052 665.467 39.612 665.467 37.82C665.467 36.028 665.979 34.572 667.003 33.484C668.027 32.396 669.403 31.836 671.115 31.836ZM671.083 33.884C670.139 33.884 669.387 34.252 668.827 34.956C668.267 35.66 667.979 36.604 667.979 37.788C667.979 39.004 668.267 39.964 668.811 40.668C669.371 41.356 670.139 41.708 671.115 41.724C672.059 41.724 672.811 41.372 673.355 40.668C673.899 39.964 674.171 39.004 674.171 37.788C674.171 36.588 673.883 35.644 673.339 34.94C672.779 34.236 672.027 33.884 671.083 33.884ZM678.417 43.5V32.108H681.985L684.641 39.932L687.233 32.108H690.721V43.5H688.369V35.404L685.569 43.5H683.633L680.801 35.484V43.5H678.417ZM701.476 32.108V34.156H695.412V36.636H700.98V38.604H695.412V41.404H701.588V43.5H692.932V32.108H701.476Z" fill="black"/>
<path d="M759.768 32.108V33.42H753.784V36.972H759.064V38.236H753.784V43.5H752.28V32.108H759.768ZM765.361 32.108L769.809 43.5H768.128L766.865 40.012H762.081L760.785 43.5H759.184L763.665 32.108H765.361ZM766.417 38.812L764.481 33.548L762.513 38.812H766.417ZM781.032 43.532L780.248 44.476L778.52 43.084C777.72 43.548 776.792 43.772 775.736 43.772C774.024 43.772 772.696 43.196 771.736 42.044C770.776 40.892 770.312 39.436 770.312 37.676C770.312 35.916 770.808 34.508 771.799 33.452C772.792 32.396 774.104 31.852 775.768 31.852C777.448 31.852 778.776 32.38 779.752 33.436C780.728 34.492 781.224 35.932 781.224 37.772C781.224 39.74 780.648 41.26 779.528 42.332L781.032 43.532ZM776.904 40.236L778.408 41.468C779.272 40.604 779.72 39.372 779.72 37.788C779.72 36.396 779.352 35.276 778.648 34.428C777.928 33.58 776.984 33.148 775.8 33.148C774.52 33.148 773.544 33.596 772.856 34.476C772.152 35.356 771.816 36.444 771.816 37.74C771.816 39.1 772.152 40.236 772.824 41.132C773.496 42.044 774.504 42.492 775.832 42.492C776.44 42.492 776.952 42.396 777.384 42.172L776.104 41.164L776.904 40.236ZM791.172 35.452L789.7 35.468C789.54 33.916 788.596 33.148 786.868 33.148C786.052 33.148 785.412 33.308 784.964 33.644C784.516 33.964 784.292 34.428 784.292 35.036C784.292 35.244 784.324 35.436 784.388 35.596C784.452 35.756 784.564 35.884 784.724 36.012C784.884 36.14 785.028 36.236 785.156 36.332C785.3 36.412 785.524 36.492 785.812 36.572C786.116 36.668 786.356 36.732 786.532 36.764C786.724 36.796 786.996 36.86 787.38 36.94C787.86 37.036 788.244 37.132 788.548 37.212C788.868 37.292 789.236 37.42 789.652 37.596C790.084 37.788 790.42 37.98 790.676 38.204C790.932 38.428 791.14 38.716 791.332 39.068C791.524 39.436 791.604 39.852 791.604 40.3C791.604 41.1 791.38 41.772 790.932 42.316C790.484 42.86 789.94 43.228 789.3 43.436C788.66 43.66 787.956 43.756 787.172 43.756C785.748 43.756 784.612 43.42 783.748 42.748C782.884 42.076 782.452 41.068 782.452 39.74H783.908C783.94 40.716 784.276 41.42 784.884 41.868C785.508 42.316 786.308 42.54 787.3 42.54C788.084 42.54 788.756 42.364 789.316 42.044C789.86 41.724 790.148 41.196 790.148 40.46C790.148 40.108 790.068 39.82 789.924 39.58C789.764 39.34 789.54 39.148 789.22 38.988C788.9 38.828 788.58 38.716 788.26 38.62C787.94 38.524 787.508 38.412 786.996 38.3C786.916 38.284 786.868 38.268 786.836 38.252C785.652 37.996 784.884 37.772 784.532 37.612C783.412 37.132 782.868 36.316 782.868 35.132C782.868 34.044 783.268 33.244 784.068 32.7C784.868 32.156 785.844 31.884 786.98 31.884C788.228 31.884 789.236 32.188 789.972 32.78C790.724 33.388 791.124 34.268 791.172 35.452Z" fill="black"/>
<path d="M842.328 32.108H847C848.168 32.108 849.096 32.38 849.784 32.908C850.456 33.436 850.808 34.268 850.808 35.388C850.808 37.692 849.512 38.828 846.92 38.828H843.832V43.5H842.328V32.108ZM843.816 33.404V37.564H846.712C847.528 37.564 848.168 37.42 848.616 37.116C849.064 36.812 849.288 36.268 849.288 35.484C849.288 35.052 849.224 34.684 849.08 34.396C848.936 34.108 848.728 33.9 848.44 33.756C848.168 33.628 847.88 33.532 847.576 33.484C847.288 33.436 846.92 33.404 846.504 33.404H843.816ZM860.527 32.108V33.42H854.143V36.988H860.111V38.252H854.143V42.188H860.607V43.5H852.639V32.108H860.527ZM870.324 32.108V33.42H866.5V43.5H864.996V33.42H861.172V32.108H870.324ZM883.965 32.108V33.42H880.141V43.5H878.637V33.42H874.813V32.108H883.965ZM888.564 32.108L893.012 43.5H891.332L890.068 40.012H885.284L883.988 43.5H882.388L886.868 32.108H888.564ZM889.62 38.812L887.684 33.548L885.716 38.812H889.62ZM904.043 37.468L904.027 43.516H903.067L902.683 42.092C901.771 43.212 900.539 43.788 899.003 43.788C897.387 43.788 896.075 43.244 895.083 42.156C894.091 41.068 893.595 39.66 893.595 37.916C893.595 36.172 894.075 34.732 895.067 33.596C896.059 32.444 897.403 31.884 899.131 31.884C899.915 31.884 900.651 32.012 901.339 32.284C902.011 32.556 902.603 32.988 903.083 33.564C903.563 34.14 903.835 34.828 903.899 35.612H902.427C902.299 34.876 901.947 34.268 901.339 33.82C900.731 33.372 899.995 33.132 899.115 33.132C897.883 33.132 896.907 33.564 896.187 34.412C895.451 35.26 895.099 36.412 895.099 37.852C895.099 39.292 895.451 40.428 896.187 41.26C896.907 42.108 897.883 42.524 899.115 42.524C900.267 42.524 901.131 42.188 901.739 41.484C902.347 40.78 902.667 39.852 902.699 38.7H899.051V37.468H904.043Z" fill="black"/>
<path d="M964.912 39.196C964.784 40.636 964.272 41.772 963.408 42.572C962.544 43.372 961.392 43.772 959.968 43.772C958.352 43.772 957.072 43.244 956.128 42.172C955.168 41.1 954.704 39.644 954.704 37.82C954.704 36.124 955.168 34.7 956.128 33.564C957.088 32.428 958.4 31.852 960.096 31.852C961.296 31.852 962.352 32.188 963.264 32.828C964.192 33.484 964.704 34.38 964.8 35.532H963.296C963.136 34.796 962.752 34.204 962.176 33.788C961.6 33.372 960.896 33.148 960.048 33.148C958.784 33.148 957.824 33.596 957.184 34.492C956.544 35.388 956.224 36.492 956.224 37.804C956.224 39.26 956.56 40.396 957.248 41.228C957.92 42.06 958.864 42.476 960.048 42.476C961.008 42.476 961.792 42.204 962.368 41.644C962.944 41.084 963.28 40.268 963.408 39.196H964.912ZM971.611 31.836C973.339 31.836 974.683 32.38 975.643 33.468C976.603 34.556 977.083 35.964 977.083 37.708C977.083 39.468 976.603 40.924 975.659 42.06C974.699 43.212 973.355 43.772 971.627 43.772C970.731 43.772 969.947 43.612 969.243 43.292C968.539 42.972 967.963 42.54 967.515 41.964C967.067 41.404 966.731 40.764 966.507 40.028C966.283 39.308 966.171 38.524 966.171 37.676C966.171 35.9 966.651 34.476 967.643 33.42C968.635 32.364 969.947 31.836 971.611 31.836ZM971.611 33.148C970.331 33.148 969.355 33.596 968.683 34.492C968.011 35.388 967.659 36.476 967.659 37.788C967.659 39.228 968.027 40.364 968.747 41.212C969.467 42.06 970.427 42.476 971.627 42.476C972.827 42.476 973.787 42.06 974.507 41.196C975.211 40.348 975.579 39.212 975.579 37.788C975.579 36.38 975.211 35.26 974.491 34.412C973.771 33.58 972.811 33.148 971.611 33.148ZM978.903 32.108H980.551L986.567 41.356V32.108H988.023V43.5H986.327L980.343 34.364V43.5H978.903V32.108ZM998.418 32.108V33.42H994.594V43.5H993.09V33.42H989.266V32.108H998.418ZM1003.02 32.108L1007.46 43.5H1005.78L1004.52 40.012H999.737L998.441 43.5H996.841L1001.32 32.108H1003.02ZM1004.07 38.812L1002.14 33.548L1000.17 38.812H1004.07ZM1018.26 39.196C1018.13 40.636 1017.62 41.772 1016.75 42.572C1015.89 43.372 1014.74 43.772 1013.31 43.772C1011.7 43.772 1010.42 43.244 1009.47 42.172C1008.51 41.1 1008.05 39.644 1008.05 37.82C1008.05 36.124 1008.51 34.7 1009.47 33.564C1010.43 32.428 1011.74 31.852 1013.44 31.852C1014.64 31.852 1015.7 32.188 1016.61 32.828C1017.54 33.484 1018.05 34.38 1018.14 35.532H1016.64C1016.48 34.796 1016.1 34.204 1015.52 33.788C1014.94 33.372 1014.24 33.148 1013.39 33.148C1012.13 33.148 1011.17 33.596 1010.53 34.492C1009.89 35.388 1009.57 36.492 1009.57 37.804C1009.57 39.26 1009.9 40.396 1010.59 41.228C1011.26 42.06 1012.21 42.476 1013.39 42.476C1014.35 42.476 1015.14 42.204 1015.71 41.644C1016.29 41.084 1016.62 40.268 1016.75 39.196H1018.26ZM1028.06 32.108V33.42H1024.23V43.5H1022.73V33.42H1018.91V32.108H1028.06ZM1033.72 32.108H1035.24V39.292C1035.24 40.412 1035.48 41.212 1035.96 41.724C1036.44 42.236 1037.22 42.492 1038.31 42.492C1039.43 42.492 1040.21 42.236 1040.68 41.708C1041.14 41.196 1041.38 40.38 1041.38 39.292V32.108H1042.9V38.892C1042.9 40.556 1042.55 41.788 1041.86 42.572C1041.16 43.356 1039.97 43.74 1038.31 43.74C1036.68 43.74 1035.51 43.372 1034.79 42.604C1034.07 41.836 1033.72 40.652 1033.72 39.052V32.108ZM1053.41 35.452L1051.93 35.468C1051.77 33.916 1050.83 33.148 1049.1 33.148C1048.29 33.148 1047.65 33.308 1047.2 33.644C1046.75 33.964 1046.53 34.428 1046.53 35.036C1046.53 35.244 1046.56 35.436 1046.62 35.596C1046.69 35.756 1046.8 35.884 1046.96 36.012C1047.12 36.14 1047.26 36.236 1047.39 36.332C1047.53 36.412 1047.76 36.492 1048.05 36.572C1048.35 36.668 1048.59 36.732 1048.77 36.764C1048.96 36.796 1049.23 36.86 1049.61 36.94C1050.09 37.036 1050.48 37.132 1050.78 37.212C1051.1 37.292 1051.47 37.42 1051.89 37.596C1052.32 37.788 1052.65 37.98 1052.91 38.204C1053.17 38.428 1053.37 38.716 1053.57 39.068C1053.76 39.436 1053.84 39.852 1053.84 40.3C1053.84 41.1 1053.61 41.772 1053.17 42.316C1052.72 42.86 1052.17 43.228 1051.53 43.436C1050.89 43.66 1050.19 43.756 1049.41 43.756C1047.98 43.756 1046.85 43.42 1045.98 42.748C1045.12 42.076 1044.69 41.068 1044.69 39.74H1046.14C1046.17 40.716 1046.51 41.42 1047.12 41.868C1047.74 42.316 1048.54 42.54 1049.53 42.54C1050.32 42.54 1050.99 42.364 1051.55 42.044C1052.09 41.724 1052.38 41.196 1052.38 40.46C1052.38 40.108 1052.3 39.82 1052.16 39.58C1052 39.34 1051.77 39.148 1051.45 38.988C1051.13 38.828 1050.81 38.716 1050.49 38.62C1050.17 38.524 1049.74 38.412 1049.23 38.3C1049.15 38.284 1049.1 38.268 1049.07 38.252C1047.89 37.996 1047.12 37.772 1046.77 37.612C1045.65 37.132 1045.1 36.316 1045.1 35.132C1045.1 34.044 1045.5 33.244 1046.3 32.7C1047.1 32.156 1048.08 31.884 1049.21 31.884C1050.46 31.884 1051.47 32.188 1052.21 32.78C1052.96 33.388 1053.36 34.268 1053.41 35.452Z" fill="black"/>
</svg>
