<svg width="90" height="90" viewBox="0 0 90 90" fill="none" xmlns="http://www.w3.org/2000/svg">
<circle cx="45" cy="45" r="44" stroke="#4CB2E2" stroke-width="2"/>
<path d="M54 39C54 36.6131 53.0518 34.3239 51.364 32.636C49.6761 30.9482 47.3869 30 45 30C42.6131 30 40.3239 30.9482 38.636 32.636C36.9482 34.3239 36 36.6131 36 39C36 49.5 31.5 52.5 31.5 52.5H58.5C58.5 52.5 54 49.5 54 39Z" stroke="#4CB2E2" stroke-width="2" stroke-linecap="round" stroke-linejoin="round"/>
<path d="M47.595 58.5C47.3313 58.9546 46.9528 59.332 46.4973 59.5943C46.0419 59.8566 45.5256 59.9947 45 59.9947C44.4744 59.9947 43.9581 59.8566 43.5027 59.5943C43.0472 59.332 42.6687 58.9546 42.405 58.5" stroke="#4CB2E2" stroke-width="2" stroke-linecap="round" stroke-linejoin="round"/>
</svg>
