<svg width="20" height="21" viewBox="0 0 20 21" fill="none" xmlns="http://www.w3.org/2000/svg">
<path fill-rule="evenodd" clip-rule="evenodd" d="M9.9032 0.903073C4.56718 0.903073 0.225813 5.24333 0.225813 10.5805C0.225813 15.9166 4.56718 20.2574 9.9032 20.2574C15.2392 20.2574 19.5807 15.9166 19.5807 10.5805C19.5807 5.24333 15.2392 0.903073 9.9032 0.903073ZM15.2984 7.3531L9.34303 14.0529C9.19639 14.2173 8.99206 14.3021 8.78617 14.3021C8.62282 14.3021 8.45869 14.2485 8.32136 14.1398L4.59919 11.1616C4.27834 10.9051 4.2263 10.4364 4.48311 10.1148C4.73962 9.79432 5.20853 9.74177 5.52938 9.99879L8.69946 12.5347L14.1854 6.36351C14.458 6.0555 14.9291 6.02793 15.2362 6.30161C15.5437 6.57476 15.5716 7.0451 15.2984 7.3531Z" fill="#CD7F32"/>
</svg>
