<svg width="24" height="24" viewBox="0 0 24 24" fill="none" xmlns="http://www.w3.org/2000/svg">
<g clip-path="url(#clip0_53_97)">
<path d="M12.0979 0.75C5.88453 0.75 0.8479 5.78662 0.8479 12C0.8479 18.2134 5.88453 23.25 12.0979 23.25C18.3113 23.25 23.3479 18.2134 23.3479 12C23.3479 5.78662 18.3109 0.75 12.0979 0.75ZM12.0979 21.75C6.72153 21.75 2.3479 17.376 2.3479 12C2.3479 6.624 6.72153 2.25 12.0979 2.25C17.4743 2.25 21.8479 6.624 21.8479 12C21.8479 17.376 17.4739 21.75 12.0979 21.75Z" fill="#EAEFF3"/>
<path d="M16.7854 11.0625H12.8479V7.125C12.8479 6.711 12.5119 6.375 12.0979 6.375C11.6839 6.375 11.3479 6.711 11.3479 7.125V11.0625H7.4104C6.9964 11.0625 6.6604 11.3985 6.6604 11.8125C6.6604 12.2265 6.9964 12.5625 7.4104 12.5625H11.3479V16.5C11.3479 16.914 11.6839 17.25 12.0979 17.25C12.5119 17.25 12.8479 16.914 12.8479 16.5V12.5625H16.7854C17.1994 12.5625 17.5354 12.2265 17.5354 11.8125C17.5354 11.3985 17.1994 11.0625 16.7854 11.0625Z" fill="#EAEFF3"/>
</g>
<defs>
<clipPath id="clip0_53_97">
<rect width="24" height="24" fill="white"/>
</clipPath>
</defs>
</svg>
