<svg width="20" height="21" viewBox="0 0 20 21" fill="none" xmlns="http://www.w3.org/2000/svg">
<path fill-rule="evenodd" clip-rule="evenodd" d="M9.80647 0.935072C4.47045 0.935072 0.129085 5.27533 0.129085 10.6125C0.129085 15.9486 4.47045 20.2894 9.80647 20.2894C15.1425 20.2894 19.484 15.9486 19.484 10.6125C19.484 5.27533 15.1425 0.935072 9.80647 0.935072ZM15.2016 7.3851L9.2463 14.0849C9.09966 14.2493 8.89534 14.3341 8.68945 14.3341C8.5261 14.3341 8.36197 14.2805 8.22463 14.1718L4.50246 11.1936C4.18161 10.9371 4.12957 10.4684 4.38639 10.1468C4.64289 9.82632 5.1118 9.77377 5.43265 10.0308L8.60273 12.5667L14.0887 6.39551C14.3612 6.0875 14.8324 6.05992 15.1395 6.33361C15.4469 6.60676 15.4748 7.0771 15.2016 7.3851Z" fill="url(#paint0_radial_47_146)"/>
<defs>
<radialGradient id="paint0_radial_47_146" cx="0" cy="0" r="1" gradientUnits="userSpaceOnUse" gradientTransform="translate(9.80647 15.9694) rotate(90) scale(11.4052 11.4056)">
<stop stop-color="#FFD700"/>
<stop offset="1" stop-color="#B89D0B"/>
</radialGradient>
</defs>
</svg>
