<svg width="52" height="52" viewBox="0 0 52 52" fill="none" xmlns="http://www.w3.org/2000/svg">
<rect x="1.26881" y="1.30092" width="49.1398" height="49.1399" rx="24.5699" stroke="#FDD30F" stroke-width="1.72043"/>
<rect x="0.462341" y="0.494385" width="50.7527" height="50.7527" rx="25.3763" fill="url(#paint0_radial_47_135)"/>
<g clip-path="url(#clip0_47_135)">
<path d="M31.6451 18.1287C31.7908 18.1287 31.9346 18.1616 32.0658 18.2249C32.197 18.2882 32.3122 18.3804 32.4029 18.4945L32.4745 18.599L35.3777 23.4377C35.4728 23.5964 35.5204 23.7789 35.5149 23.9638C35.5094 24.1487 35.4511 24.3282 35.3467 24.4809L35.2693 24.5806L27.0145 33.8061C26.8612 33.9625 26.6782 34.0867 26.4763 34.1714C26.2744 34.2562 26.0576 34.2998 25.8387 34.2996C25.4516 34.2996 25.079 34.1641 24.7645 33.8961L24.6338 33.7741L16.408 24.5806C16.2843 24.4425 16.2028 24.2718 16.1733 24.0887C16.1438 23.9057 16.1675 23.718 16.2416 23.548L16.2996 23.4367L19.2154 18.5767L19.2774 18.4896C19.3217 18.4345 19.372 18.3845 19.4274 18.3406L19.5135 18.2787L19.5987 18.2303L19.6471 18.208L19.7051 18.1838L19.8106 18.1529L19.919 18.1335L20.0322 18.1287H31.6451ZM23.0458 21.9445C22.8258 21.8127 22.5625 21.7737 22.3137 21.8359C22.0649 21.8982 21.851 22.0566 21.719 22.2764L21.1383 23.2441L21.0803 23.3564C21.0062 23.5272 20.983 23.7157 21.0134 23.8994C21.0437 24.083 21.1264 24.254 21.2516 24.3919L23.1871 26.5209L23.2742 26.6061C23.4533 26.7594 23.6822 26.842 23.918 26.8384C24.1537 26.8349 24.3801 26.7454 24.5545 26.5867L24.6387 26.4996C24.792 26.3205 24.8746 26.0916 24.871 25.8558C24.8675 25.6201 24.7779 25.3937 24.6193 25.2193L23.1667 23.6225L23.3777 23.2712L23.4309 23.1716C23.5282 22.9554 23.5427 22.711 23.4717 22.4848C23.4007 22.2586 23.2491 22.0663 23.0458 21.9445Z" fill="white"/>
</g>
<defs>
<radialGradient id="paint0_radial_47_135" cx="0" cy="0" r="1" gradientUnits="userSpaceOnUse" gradientTransform="translate(25.8387 39.9183) rotate(90) scale(29.9078)">
<stop stop-color="#FFD700"/>
<stop offset="1" stop-color="#B89D0B"/>
</radialGradient>
<clipPath id="clip0_47_135">
<rect width="23.2258" height="23.2258" fill="white" transform="translate(14.2258 14.2581)"/>
</clipPath>
</defs>
</svg>
