<svg width="80" height="80" viewBox="0 0 80 80" fill="none" xmlns="http://www.w3.org/2000/svg">
<path d="M78.7133 42.9124C78.8369 45.866 77.7839 48.748 75.7853 50.9262C73.7867 53.1044 71.0056 54.4008 68.0523 54.5312C67.8796 54.5392 67.7072 54.5432 67.5352 54.5432C66.7505 54.5427 65.9681 54.4577 65.2016 54.2899C62.9271 57.8016 59.9448 60.7999 56.4453 63.093C52.9459 65.3862 49.0063 66.9236 44.8786 67.6071C44.3904 69.0414 43.4164 70.26 42.125 71.0523C40.8336 71.8447 39.3059 72.1609 37.8061 71.9463C36.3063 71.7318 34.9285 71 33.911 69.8774C32.8935 68.7548 32.3003 67.312 32.2337 65.7983C32.1672 64.2847 32.6316 62.7954 33.5466 61.5878C34.4617 60.3803 35.7699 59.5304 37.2451 59.1851C38.7203 58.8397 40.2698 59.0207 41.6258 59.6966C42.9817 60.3726 44.0589 61.501 44.6711 62.887C50.4823 61.8122 55.7321 58.7323 59.5056 54.1841C63.279 49.6359 65.3368 43.9078 65.3203 37.998C65.3203 24.0363 53.9617 12.6777 40 12.6777C26.0383 12.6777 14.6797 24.0363 14.6797 37.998C14.6789 42.3152 15.7823 46.5609 17.8848 50.3315C17.9561 50.4559 18.0096 50.5897 18.0438 50.729C18.2468 51.2935 18.2251 51.9144 17.9831 52.4633C17.7411 53.0122 17.2973 53.4471 16.7436 53.6779C15.3877 54.2485 13.9315 54.5423 12.4605 54.5421C12.2873 54.5421 12.1139 54.5381 11.94 54.5301C8.98794 54.3981 6.20869 53.1009 4.21164 50.9229C2.21458 48.7448 1.16273 45.8637 1.28672 42.9113C1.33656 41.734 1.30875 40.6835 1.28156 39.6677C1.25625 38.7113 1.22985 37.7223 1.27328 36.6902C1.40292 33.8075 2.64296 31.0868 4.73368 29.0978C6.8244 27.1089 9.60361 26.0061 12.4892 26.0204C17.123 15.4185 27.7094 7.99023 40 7.99023C52.2906 7.99023 62.8772 15.4185 67.5109 26.0205C70.3968 26.0041 73.1769 27.1059 75.268 29.0949C77.3591 31.0839 78.5986 33.8054 78.7266 36.6885C78.7702 37.7221 78.7439 38.711 78.7183 39.6674C78.6914 40.6834 78.6634 41.7343 78.7133 42.9124ZM59.657 37.998C59.6559 41.0095 58.9631 43.9805 57.6321 46.6819C56.3011 49.3833 54.3674 51.7429 51.9803 53.5787C49.5931 55.4146 46.8161 56.6776 43.8636 57.2704C40.911 57.8633 37.8618 57.7701 34.9509 56.998L26.9945 61.5929C26.5931 61.8247 26.1319 61.9323 25.6693 61.902C25.2067 61.8717 24.7635 61.7049 24.3957 61.4227C24.0279 61.1405 23.752 60.7556 23.603 60.3166C23.454 59.8776 23.4386 59.4043 23.5586 58.9565L25.592 51.3709C22.2245 47.731 20.3508 42.9567 20.3438 37.998C20.3438 27.1562 29.1611 18.3365 40 18.3365C50.8389 18.3365 59.657 27.1562 59.657 37.998ZM34.5352 37.998C34.5352 37.3764 34.2882 36.7803 33.8487 36.3408C33.4092 35.9012 32.813 35.6543 32.1914 35.6543H32.1875C31.7241 35.6552 31.2714 35.7934 30.8866 36.0514C30.5017 36.3095 30.202 36.6758 30.0253 37.1042C29.8486 37.5325 29.8028 38.0036 29.8937 38.458C29.9846 38.9123 30.2082 39.3295 30.5361 39.6569C30.8641 39.9842 31.2817 40.207 31.7362 40.2971C32.1908 40.3872 32.6618 40.3405 33.0898 40.163C33.5178 39.9854 33.8836 39.685 34.1409 39.2997C34.3983 38.9144 34.5356 38.4614 34.5356 37.998H34.5352ZM42.3442 37.998C42.344 37.9213 42.3399 37.8447 42.3317 37.7684C42.3243 37.6918 42.3129 37.6156 42.2975 37.5402C42.2835 37.4651 42.2647 37.391 42.2411 37.3184C42.2194 37.2449 42.1928 37.173 42.1647 37.1012C42.1366 37.0293 42.1022 36.9621 42.0663 36.8949C42.0306 36.8274 41.9914 36.7616 41.9491 36.698C41.9063 36.6338 41.8604 36.5717 41.8114 36.5121C41.7633 36.4524 41.7117 36.3955 41.6569 36.3418C41.6038 36.2871 41.5459 36.2355 41.4866 36.1855C41.427 36.1387 41.3645 36.0918 41.3005 36.0496C41.2369 36.0072 41.1713 35.9681 41.1038 35.9324C41.0364 35.8965 40.9663 35.8637 40.8958 35.834C40.8254 35.8045 40.7535 35.779 40.6803 35.7574C40.5342 35.7105 40.3832 35.6801 40.2303 35.6668C40.0008 35.6447 39.7692 35.6557 39.5428 35.6996C39.4674 35.715 39.3929 35.7343 39.3195 35.7574C39.2463 35.7789 39.1743 35.8045 39.1039 35.834C39.0336 35.8637 38.9633 35.8965 38.8961 35.9324C38.8289 35.9684 38.7633 36.0074 38.6991 36.0496C38.5708 36.1347 38.4515 36.2326 38.343 36.3418C38.2881 36.3955 38.2364 36.4524 38.1881 36.5121C38.1397 36.5717 38.0944 36.6338 38.0523 36.698C38.0094 36.7616 37.9698 36.8273 37.9336 36.8949C37.8975 36.9619 37.8652 37.0307 37.8366 37.1012C37.8069 37.1722 37.7808 37.2447 37.7584 37.3184C37.7367 37.3902 37.718 37.4652 37.7023 37.5402C37.6869 37.6156 37.6754 37.6918 37.6678 37.7684C37.6602 37.8449 37.6569 37.9215 37.6569 37.998C37.6569 38.0746 37.6602 38.1527 37.6678 38.2293C37.6755 38.3054 37.687 38.381 37.7023 38.4559C37.718 38.5309 37.7367 38.6059 37.7584 38.6793C37.7808 38.7524 37.8069 38.8244 37.8366 38.8949C37.8651 38.9659 37.8975 39.0353 37.9336 39.1027C37.9694 39.1699 38.0102 39.2355 38.0523 39.2996C38.0944 39.3633 38.1398 39.4249 38.1881 39.484C38.2368 39.5438 38.2885 39.6012 38.343 39.6559C38.3977 39.709 38.4539 39.7621 38.5148 39.8105C38.5736 39.8593 38.6351 39.9047 38.6991 39.9465C38.7633 39.9887 38.8288 40.0293 38.8961 40.0652C39.0318 40.136 39.1735 40.1945 39.3195 40.2402C39.3928 40.2621 39.4678 40.2809 39.5428 40.2965C39.6935 40.3273 39.8469 40.3425 40.0006 40.3418C40.6215 40.3401 41.2166 40.0937 41.6569 39.6559C41.7649 39.5462 41.8627 39.427 41.9491 39.2996C41.9913 39.2355 42.0303 39.1699 42.0663 39.1027C42.1022 39.0355 42.135 38.9652 42.1647 38.8949C42.1944 38.8246 42.2194 38.7512 42.2411 38.6793C42.2645 38.606 42.2833 38.5314 42.2975 38.4559C42.3128 38.381 42.3242 38.3054 42.3317 38.2293C42.3397 38.1524 42.3437 38.0751 42.3438 37.9977L42.3442 37.998ZM50.1567 37.998C50.1567 37.3764 49.9098 36.7803 49.4703 36.3408C49.0307 35.9012 48.4346 35.6543 47.813 35.6543H47.8084C47.3451 35.6552 46.8924 35.7934 46.5076 36.0515C46.1227 36.3096 45.823 36.6759 45.6463 37.1043C45.4696 37.5326 45.4239 38.0037 45.5148 38.4581C45.6058 38.9124 45.8293 39.3296 46.1573 39.6569C46.4852 39.9842 46.9029 40.207 47.3574 40.2971C47.8119 40.3872 48.2829 40.3405 48.7109 40.163C49.1389 39.9854 49.5047 39.685 49.762 39.2997C50.0194 38.9144 50.1567 38.4614 50.1567 37.998Z" fill="black"/>
</svg>
