<svg width="36" height="36" viewBox="0 0 36 36" fill="none" xmlns="http://www.w3.org/2000/svg">
<rect width="36" height="36" rx="8" fill="#EDEDEE"/>
<mask id="mask0_54_282" style="mask-type:alpha" maskUnits="userSpaceOnUse" x="10" y="10" width="16" height="16">
<g clip-path="url(#clip0_54_282)">
<path fill-rule="evenodd" clip-rule="evenodd" d="M18 11.332C16.1894 11.332 15.9624 11.3397 15.2513 11.3722C14.5417 11.4045 14.0571 11.5172 13.6331 11.682C13.1947 11.8524 12.8229 12.0803 12.4522 12.451C12.0816 12.8216 11.8537 13.1934 11.6833 13.6318C11.5185 14.0558 11.4058 14.5405 11.3734 15.25C11.341 15.9611 11.3333 16.1881 11.3333 17.9987C11.3333 19.8092 11.341 20.0363 11.3734 20.7474C11.4058 21.457 11.5185 21.9416 11.6833 22.3656C11.8537 22.804 12.0816 23.1758 12.4522 23.5464C12.8229 23.917 13.1947 24.145 13.6331 24.3154C14.0571 24.4802 14.5417 24.5929 15.2513 24.6252C15.9624 24.6577 16.1894 24.6654 18 24.6654C19.8105 24.6654 20.0376 24.6577 20.7486 24.6252C21.4582 24.5929 21.9428 24.4802 22.3669 24.3154C22.8053 24.145 23.177 23.917 23.5477 23.5464C23.9183 23.1758 24.1463 22.804 24.3166 22.3656C24.4814 21.9416 24.5942 21.457 24.6265 20.7474C24.659 20.0363 24.6666 19.8092 24.6666 17.9987C24.6666 16.1881 24.659 15.9611 24.6265 15.25C24.5942 14.5405 24.4814 14.0558 24.3166 13.6318C24.1463 13.1934 23.9183 12.8216 23.5477 12.451C23.177 12.0803 22.8053 11.8524 22.3669 11.682C21.9428 11.5172 21.4582 11.4045 20.7486 11.3722C20.0376 11.3397 19.8105 11.332 18 11.332ZM18 12.5332C19.78 12.5332 19.9909 12.54 20.6939 12.5721C21.3438 12.6017 21.6968 12.7104 21.9318 12.8017C22.243 12.9226 22.465 13.0671 22.6983 13.3004C22.9316 13.5336 23.0761 13.7557 23.197 14.0669C23.2883 14.3018 23.3969 14.6548 23.4266 15.3048C23.4586 16.0078 23.4654 16.2186 23.4654 17.9987C23.4654 19.7788 23.4586 19.9896 23.4266 20.6926C23.3969 21.3426 23.2883 21.6956 23.197 21.9305C23.0761 22.2417 22.9316 22.4638 22.6983 22.697C22.465 22.9304 22.243 23.0748 21.9318 23.1958C21.6968 23.287 21.3438 23.3956 20.6939 23.4253C19.991 23.4574 19.7802 23.4642 18 23.4642C16.2198 23.4642 16.009 23.4574 15.3061 23.4253C14.6561 23.3956 14.3031 23.287 14.0682 23.1958C13.757 23.0748 13.5349 22.9304 13.3016 22.697C13.0684 22.4638 12.9239 22.2417 12.8029 21.9305C12.7116 21.6956 12.603 21.3426 12.5734 20.6926C12.5413 19.9896 12.5345 19.7788 12.5345 17.9987C12.5345 16.2186 12.5413 16.0078 12.5734 15.3048C12.603 14.6548 12.7116 14.3018 12.8029 14.0669C12.9239 13.7557 13.0683 13.5336 13.3016 13.3004C13.5349 13.0671 13.757 12.9226 14.0682 12.8017C14.3031 12.7104 14.6561 12.6017 15.3061 12.5721C16.009 12.54 16.2199 12.5332 18 12.5332ZM17.9999 20.2209C16.7726 20.2209 15.7777 19.226 15.7777 17.9987C15.7777 16.7714 16.7726 15.7765 17.9999 15.7765C19.2272 15.7765 20.2221 16.7714 20.2221 17.9987C20.2221 19.226 19.2272 20.2209 17.9999 20.2209ZM17.9999 14.5753C16.1092 14.5753 14.5765 16.108 14.5765 17.9987C14.5765 19.8894 16.1092 21.4221 17.9999 21.4221C19.8906 21.4221 21.4233 19.8894 21.4233 17.9987C21.4233 16.108 19.8906 14.5753 17.9999 14.5753ZM21.5583 15.2395C22 15.2395 22.3581 14.8815 22.3581 14.4398C22.3581 13.9981 22 13.64 21.5583 13.64C21.1166 13.64 20.7586 13.9981 20.7586 14.4398C20.7586 14.8815 21.1166 15.2395 21.5583 15.2395Z" fill="black"/>
</g>
</mask>
<g mask="url(#mask0_54_282)">
<rect x="10" y="10" width="16" height="16" fill="#1F2834"/>
</g>
<defs>
<clipPath id="clip0_54_282">
<rect width="16" height="16" fill="white" transform="translate(10 10)"/>
</clipPath>
</defs>
</svg>
