<svg width="24" height="24" viewBox="0 0 24 24" fill="none" xmlns="http://www.w3.org/2000/svg">
<g clip-path="url(#clip0_53_101)">
<path d="M16.875 11.25H7.125C6.711 11.25 6.375 11.586 6.375 12C6.375 12.414 6.711 12.75 7.125 12.75H16.875C17.289 12.75 17.625 12.414 17.625 12C17.625 11.586 17.289 11.25 16.875 11.25Z" fill="white"/>
<path d="M12 0.75C5.78662 0.75 0.75 5.78662 0.75 12C0.75 18.2134 5.78662 23.25 12 23.25C18.2134 23.25 23.25 18.2134 23.25 12C23.25 5.78662 18.2134 0.75 12 0.75ZM12 21.75C6.624 21.75 2.25 17.376 2.25 12C2.25 6.624 6.624 2.25 12 2.25C17.376 2.25 21.75 6.624 21.75 12C21.75 17.376 17.376 21.75 12 21.75Z" fill="white"/>
</g>
<defs>
<clipPath id="clip0_53_101">
<rect width="24" height="24" fill="white"/>
</clipPath>
</defs>
</svg>
