<svg width="20" height="21" viewBox="0 0 20 21" fill="none" xmlns="http://www.w3.org/2000/svg">
<path fill-rule="evenodd" clip-rule="evenodd" d="M9.83871 0.935372C4.5027 0.935372 0.161328 5.27563 0.161328 10.6128C0.161328 15.9489 4.5027 20.2897 9.83871 20.2897C15.1747 20.2897 19.5162 15.9489 19.5162 10.6128C19.5162 5.27563 15.1747 0.935372 9.83871 0.935372ZM15.2339 7.3854L9.27854 14.0852C9.13191 14.2496 8.92758 14.3344 8.72169 14.3344C8.55834 14.3344 8.39421 14.2808 8.25688 14.1721L4.5347 11.1939C4.21385 10.9374 4.16181 10.4687 4.41863 10.1471C4.67513 9.82662 5.14404 9.77407 5.46489 10.0311L8.63497 12.567L14.1209 6.39581C14.3935 6.0878 14.8646 6.06022 15.1717 6.33391C15.4792 6.60706 15.5071 7.0774 15.2339 7.3854Z" fill="#C0C0C0"/>
</svg>
