<svg width="58" height="58" viewBox="0 0 58 58" fill="none" xmlns="http://www.w3.org/2000/svg">
<rect x="0.509216" y="0.509277" width="56.7235" height="56.7235" rx="28.3617" fill="url(#paint0_radial_47_34)"/>
<g filter="url(#filter0_d_47_34)">
<path fill-rule="evenodd" clip-rule="evenodd" d="M28.9065 28.6006C28.9065 28.6006 25.9967 24.7541 25.3099 21.3416C25.1504 20.9006 25.0599 20.4213 25.0532 19.9196C25.0234 17.6914 26.6575 15.8629 28.7031 15.8356C30.7487 15.8082 32.4311 17.5924 32.4609 19.8206C32.4649 20.1252 32.4379 20.4223 32.383 20.7083C32.0173 24.2514 28.9065 28.6006 28.9065 28.6006ZM28.8764 29.1655C28.8764 29.1655 26.0704 33.0884 25.475 36.518C25.3273 36.9631 25.2497 37.4445 25.2564 37.9462C25.2862 40.1744 26.9686 41.9586 29.0142 41.9313C31.0597 41.9039 32.6939 40.0755 32.6641 37.8472C32.66 37.5425 32.6251 37.2461 32.5625 36.9615C32.102 33.4296 28.8764 29.1655 28.8764 29.1655ZM21.3639 32.4539C24.7762 31.767 28.6223 28.8575 28.6223 28.8575C28.6223 28.8575 24.2749 25.7479 20.7322 25.3812C20.4456 25.3261 20.148 25.2989 19.8428 25.303C17.6146 25.3328 15.8304 27.0152 15.8578 29.0608C15.8851 31.1064 17.7136 32.7405 19.9418 32.7107C20.4436 32.704 20.9228 32.6135 21.3639 32.4539ZM29.1413 28.9072C29.1413 28.9072 32.9849 25.9996 36.3964 25.3114C36.8384 25.1511 37.3189 25.0601 37.822 25.0534C40.0502 25.0236 41.8787 26.6577 41.906 28.7033C41.9334 30.7489 40.1492 32.4313 37.921 32.4611C37.6184 32.4651 37.3233 32.4385 37.039 32.3843C33.4949 32.0213 29.1413 28.9072 29.1413 28.9072Z" fill="url(#paint1_radial_47_34)"/>
</g>
<ellipse cx="28.875" cy="28.8946" rx="0.231511" ry="5.85393" transform="rotate(-45 28.875 28.8946)" fill="url(#paint2_radial_47_34)"/>
<ellipse cx="28.8516" cy="28.9177" rx="0.231511" ry="5.85392" transform="rotate(-135 28.8516 28.9177)" fill="url(#paint3_radial_47_34)"/>
<defs>
<filter id="filter0_d_47_34" x="10.6962" y="14.1148" width="36.3715" height="36.419" filterUnits="userSpaceOnUse" color-interpolation-filters="sRGB">
<feFlood flood-opacity="0" result="BackgroundImageFix"/>
<feColorMatrix in="SourceAlpha" type="matrix" values="0 0 0 0 0 0 0 0 0 0 0 0 0 0 0 0 0 0 127 0" result="hardAlpha"/>
<feOffset dy="3.44086"/>
<feGaussianBlur stdDeviation="2.58065"/>
<feComposite in2="hardAlpha" operator="out"/>
<feColorMatrix type="matrix" values="0 0 0 0 0 0 0 0 0 0 0 0 0 0 0 0 0 0 0.1 0"/>
<feBlend mode="normal" in2="BackgroundImageFix" result="effect1_dropShadow_47_34"/>
<feBlend mode="normal" in="SourceGraphic" in2="effect1_dropShadow_47_34" result="shape"/>
</filter>
<radialGradient id="paint0_radial_47_34" cx="0" cy="0" r="1" gradientUnits="userSpaceOnUse" gradientTransform="translate(28.871 44.5713) rotate(90) scale(33.4263)">
<stop stop-color="#C0C0C0"/>
<stop offset="1" stop-color="#B1B1B2"/>
</radialGradient>
<radialGradient id="paint1_radial_47_34" cx="0" cy="0" r="1" gradientUnits="userSpaceOnUse" gradientTransform="translate(28.8709 28.871) rotate(45) scale(34.6205 34.6197)">
<stop stop-color="white"/>
<stop offset="1" stop-color="#A5D6FD"/>
</radialGradient>
<radialGradient id="paint2_radial_47_34" cx="0" cy="0" r="1" gradientUnits="userSpaceOnUse" gradientTransform="translate(28.875 28.8946) rotate(90) scale(5.85393 0.231511)">
<stop stop-color="white"/>
<stop offset="1" stop-color="white" stop-opacity="0"/>
</radialGradient>
<radialGradient id="paint3_radial_47_34" cx="0" cy="0" r="1" gradientUnits="userSpaceOnUse" gradientTransform="translate(28.8516 28.9176) rotate(90) scale(5.85392 0.231511)">
<stop stop-color="white"/>
<stop offset="1" stop-color="white" stop-opacity="0"/>
</radialGradient>
</defs>
</svg>
