<svg width="36" height="36" viewBox="0 0 36 36" fill="none" xmlns="http://www.w3.org/2000/svg">
<rect width="36" height="36" rx="8" fill="#EDEDEE"/>
<g clip-path="url(#clip0_54_289)">
<path d="M25.01 14.0117C24.0969 14.0117 23.2544 13.7092 22.5778 13.1989C21.8019 12.6139 21.2444 11.7558 21.0475 10.7667C20.9981 10.518 20.9722 10.2653 20.97 10.0117H18.3616V17.1392L18.3584 21.0433C18.3584 22.087 17.6788 22.972 16.7366 23.2833C16.4543 23.3766 16.1571 23.416 15.8603 23.3995C15.4678 23.378 15.1 23.2595 14.7803 23.0683C14.1 22.6614 13.6388 21.9233 13.6263 21.0789C13.6066 19.7592 14.6734 18.6833 15.9922 18.6833C16.2525 18.6833 16.5025 18.7258 16.7366 18.803V16.1545C16.4897 16.118 16.2384 16.0989 15.9844 16.0989C14.5409 16.0989 13.1909 16.6989 12.2259 17.7798C11.4966 18.5967 11.0591 19.6389 10.9916 20.7317C10.9031 22.1673 11.4284 23.532 12.4472 24.5389C12.5969 24.6867 12.7541 24.8239 12.9184 24.9505C13.7919 25.6227 14.8597 25.987 15.9844 25.987C16.2384 25.987 16.4897 25.9683 16.7366 25.9317C17.7872 25.7761 18.7566 25.2952 19.5216 24.5389C20.4616 23.6098 20.9809 22.3764 20.9866 21.0636L20.9731 15.2336C21.4226 15.5803 21.915 15.8675 22.4381 16.088C23.2566 16.4333 24.1244 16.6083 25.0175 16.608V14.0111C25.0181 14.0117 25.0106 14.0117 25.01 14.0117Z" fill="#1F2834"/>
</g>
<defs>
<clipPath id="clip0_54_289">
<rect width="16" height="16" fill="white" transform="translate(10 10)"/>
</clipPath>
</defs>
</svg>
