<svg width="32" height="32" viewBox="0 0 32 32" fill="none" xmlns="http://www.w3.org/2000/svg">
<path d="M27.8028 11.36C27.0188 10.992 26.0908 11.072 25.1948 11.584C24.3628 12.064 23.6428 12.88 23.1681 13.872C22.6988 14.8693 22.5228 15.9413 22.6775 16.8906C22.8481 17.9093 23.3708 18.6773 24.1548 19.0506C24.4855 19.2053 24.8321 19.28 25.1948 19.28C25.7068 19.28 26.2401 19.1306 26.7681 18.8266C27.6001 18.3466 28.3201 17.536 28.7895 16.5386C29.2641 15.5466 29.4401 14.4746 29.2801 13.5253C29.1148 12.5013 28.5868 11.7333 27.8028 11.36ZM19.2055 12.8853C19.4135 12.944 19.6321 12.9706 19.8455 12.9706C20.5441 12.9706 21.2588 12.6826 21.8988 12.128C22.6881 11.456 23.2855 10.448 23.5841 9.30129C23.8828 8.15462 23.8508 6.98662 23.4935 6.01062C23.1148 4.97062 22.4108 4.26662 21.5095 4.03195C19.7388 3.57329 17.7708 5.17862 17.1308 7.62129C16.4855 10.1013 17.3975 12.416 19.2055 12.8853ZM9.57346 27.5946C10.9121 28.2186 12.4535 28.192 13.8028 27.5253C15.2055 26.832 16.8055 26.832 18.2028 27.5253C18.9015 27.872 19.6535 28.0426 20.4055 28.0426C21.0988 28.0426 21.7921 27.8933 22.4375 27.5946C23.1148 27.2797 23.7061 26.8059 24.161 26.2135C24.616 25.6211 24.9212 24.9276 25.0508 24.192C25.2426 23.1502 25.0793 22.0743 24.5871 21.1364C24.0949 20.1984 23.3023 19.4527 22.3361 19.0186C21.4721 18.6346 20.7841 17.92 20.4055 17.0133C19.8241 15.616 18.5921 13.9626 16.0535 13.9626H16.0001C14.1175 13.9786 12.6401 15.024 11.7228 16.9813C11.2908 17.9146 10.5815 18.6293 9.72813 18.9973C7.70679 19.872 6.56546 22.0053 6.95479 24.192C7.22146 25.6906 8.2028 26.96 9.57346 27.5946ZM9.32813 16.8906C9.48279 15.9413 9.31213 14.8693 8.83746 13.872C7.81346 11.7173 5.78146 10.6133 4.20279 11.36C2.62946 12.112 2.19213 14.384 3.21613 16.5386C3.69079 17.536 4.40546 18.3466 5.24279 18.8266C5.76546 19.1306 6.30413 19.28 6.81079 19.28C7.17346 19.28 7.52546 19.2053 7.85079 19.0506C8.63479 18.6773 9.16279 17.9093 9.32813 16.8906ZM12.1815 12.9653C12.3895 12.9653 12.5975 12.944 12.8055 12.8853C14.5815 12.4266 15.5095 10.064 14.8748 7.62129C14.2401 5.17862 12.2775 3.57329 10.4961 4.03195C9.09879 4.39462 8.22413 5.93595 8.22413 7.75995C8.22413 8.26129 8.28813 8.77862 8.42679 9.30129C8.98679 11.4613 10.5868 12.9653 12.1815 12.9653Z" fill="white"/>
</svg>
