<svg width="24" height="24" viewBox="0 0 24 24" fill="none" xmlns="http://www.w3.org/2000/svg">
<g clip-path="url(#clip0_75_342)">
<mask id="mask0_75_342" style="mask-type:luminance" maskUnits="userSpaceOnUse" x="0" y="0" width="24" height="24">
<path d="M24 0H0V24H24V0Z" fill="white"/>
</mask>
<g mask="url(#mask0_75_342)">
<path d="M13.0909 2.24727V0H10.9091V2.24727C8.69686 2.49438 6.63441 3.48638 5.06039 5.06039C3.48638 6.63441 2.49438 8.69686 2.24727 10.9091H0V13.0909H2.24727C2.49438 15.3031 3.48638 17.3656 5.06039 18.9396C6.63441 20.5136 8.69686 21.5056 10.9091 21.7527V24H13.0909V21.7527C15.3031 21.5056 17.3656 20.5136 18.9396 18.9396C20.5136 17.3656 21.5056 15.3031 21.7527 13.0909H24V10.9091H21.7527C21.5056 8.69686 20.5136 6.63441 18.9396 5.06039C17.3656 3.48638 15.3031 2.49438 13.0909 2.24727ZM12 19.6364C7.77818 19.6364 4.36364 16.2218 4.36364 12C4.36364 7.77818 7.77818 4.36364 12 4.36364C16.2218 4.36364 19.6364 7.77818 19.6364 12C19.6364 16.2218 16.2218 19.6364 12 19.6364Z" fill="#4CB2E2"/>
<path opacity="0.3" d="M11.9982 14.182C13.2032 14.182 14.18 13.2052 14.18 12.0002C14.18 10.7952 13.2032 9.81836 11.9982 9.81836C10.7932 9.81836 9.81641 10.7952 9.81641 12.0002C9.81641 13.2052 10.7932 14.182 11.9982 14.182Z" fill="black"/>
<path d="M12.0004 7.63672C9.58945 7.63672 7.63672 9.58945 7.63672 12.0004C7.63672 14.4113 9.58945 16.364 12.0004 16.364C14.4113 16.364 16.364 14.4113 16.364 12.0004C16.364 9.58945 14.4113 7.63672 12.0004 7.63672ZM12.0004 14.1822C10.8004 14.1822 9.81854 13.2004 9.81854 12.0004C9.81854 10.8004 10.8004 9.81854 12.0004 9.81854C13.2004 9.81854 14.1822 10.8004 14.1822 12.0004C14.1822 13.2004 13.2004 14.1822 12.0004 14.1822Z" fill="white"/>
</g>
</g>
<defs>
<clipPath id="clip0_75_342">
<rect width="24" height="24" fill="white"/>
</clipPath>
</defs>
</svg>
