<svg width="24" height="24" viewBox="0 0 24 24" fill="none" xmlns="http://www.w3.org/2000/svg">
<g clip-path="url(#clip0_75_352)">
<path d="M22.1802 15.3221C22.2522 15.1301 22.4538 14.9285 22.6794 14.8228C23.1835 14.5876 23.798 14.866 23.9564 15.3989C24.0476 15.711 23.9852 17.7753 23.8652 18.3226C23.5436 19.7868 22.9531 20.8718 21.9161 21.9135C20.8792 22.9457 19.7846 23.5458 18.354 23.853C17.7635 23.9826 15.6896 24.0498 15.3871 23.949C14.7054 23.7234 14.523 22.8497 15.0511 22.3552C15.2719 22.1487 15.4063 22.1247 16.2609 22.1247C16.7025 22.1247 17.2594 22.1007 17.4947 22.0719C19.919 21.7743 21.8057 19.8732 22.0746 17.4536C22.1034 17.1992 22.1274 16.6471 22.1274 16.2246C22.1274 15.7974 22.1514 15.3989 22.1802 15.3221Z" fill="#4CB2E2"/>
<path d="M0.548016 14.8228C0.307979 14.9284 0.111149 15.1541 0.0391382 15.3989C0.000732411 15.5237 -0.00886904 15.9414 0.0103339 16.7287C0.0295368 17.66 0.0535404 17.9673 0.135153 18.3514C0.452001 19.7868 1.04729 20.8765 2.07944 21.9135C3.1212 22.9504 4.20617 23.5409 5.67039 23.8626C6.23207 23.9826 8.31559 24.045 8.60843 23.949C9.29013 23.7234 9.47256 22.8496 8.94448 22.3552C8.72365 22.1487 8.58923 22.1247 7.7347 22.1247C7.29303 22.1247 6.74095 22.1007 6.50091 22.0719C4.07655 21.7743 2.18986 19.8732 1.92102 17.4536C1.89222 17.1992 1.86821 16.6471 1.86821 16.2246C1.86821 15.4085 1.83941 15.2693 1.63778 15.0485C1.35453 14.746 0.912871 14.6548 0.548016 14.8228Z" fill="#4CB2E2"/>
<path fill-rule="evenodd" clip-rule="evenodd" d="M10.9417 6.23433C11.1385 6.20553 11.3353 6.17193 11.3737 6.16232C11.5561 6.11432 12.8715 6.18633 13.1884 6.25354C15.536 6.76722 17.2978 8.56269 17.7635 10.9151C17.8019 11.1119 17.8307 11.5536 17.8307 11.9952C17.8307 12.8017 17.7779 13.1618 17.5619 13.8291C16.9138 15.831 15.1903 17.3432 13.078 17.7609C12.6363 17.8473 11.3593 17.8473 10.9177 17.7609C8.52692 17.2904 6.70264 15.4662 6.23217 13.0754C6.13136 12.5713 6.14576 11.3087 6.25618 10.795C6.63063 9.06676 7.7492 7.59294 9.29504 6.79602C9.80872 6.53198 10.4376 6.31595 10.9417 6.23433ZM15.1759 9.63805C14.5038 8.75472 13.5437 8.19303 12.4683 8.05861C12.2523 8.03461 12.0074 8.0154 11.9258 8.0154C9.7319 8.10662 8.04685 9.83488 8.04685 11.9952C8.04685 14.1988 9.79431 15.9462 11.9978 15.9462C13.2604 15.9462 14.3694 15.3989 15.1471 14.386C16.2129 13.0034 16.2273 11.0255 15.1759 9.63805Z" fill="white"/>
<path d="M6.33296 0.0269838C5.59365 0.103796 4.68631 0.363035 3.99981 0.694285C3.2797 1.03514 2.71801 1.4432 2.07952 2.07689C1.04736 3.11385 0.452072 4.20362 0.135224 5.63903C0.0536115 6.02309 0.0296079 6.33034 0.010405 7.26168C-0.0183994 8.50507 0.00080356 8.66349 0.221637 8.92753C0.576891 9.34999 1.24899 9.3548 1.63785 8.94193C1.84428 8.7211 1.86829 8.58668 1.86829 7.73215C1.86829 6.13831 2.09872 5.23577 2.75642 4.20842C3.04926 3.75715 3.75977 3.04664 4.21104 2.7538C5.2384 2.0961 6.14093 1.86566 7.73477 1.86566C8.5893 1.86566 8.72372 1.84166 8.94456 1.63523C9.44383 1.16476 9.32381 0.367836 8.70932 0.0845932C8.5413 0.00778124 8.39727 -0.00182081 7.50914 0.00298021C6.95706 0.00778123 6.42418 0.0173818 6.33296 0.0269838Z" fill="#4CB2E2"/>
<path d="M15.2863 0.0798213C14.6718 0.372666 14.5518 1.16478 15.0511 1.63525C15.2719 1.84168 15.4063 1.86569 16.2609 1.86569C16.7025 1.86569 17.2594 1.88969 17.4947 1.9185C19.919 2.21614 21.8057 4.11723 22.0746 6.5368C22.1034 6.79123 22.1274 7.34332 22.1274 7.76578C22.1274 8.5819 22.1562 8.72113 22.3578 8.94196C22.8571 9.47484 23.75 9.28281 23.9564 8.59151C24.0477 8.27946 23.9852 6.21515 23.8652 5.66786C23.5436 4.20364 22.9531 3.11868 21.9161 2.07692C20.8792 1.04476 19.7846 0.444677 18.354 0.137429C17.9603 0.0510166 17.6723 0.027013 16.6785 0.0126114C15.5696 -0.00659266 15.464 -0.00179164 15.2863 0.0798213Z" fill="#4CB2E2"/>
</g>
<defs>
<clipPath id="clip0_75_352">
<rect width="24" height="24" fill="white"/>
</clipPath>
</defs>
</svg>
