<svg width="17" height="17" viewBox="0 0 17 17" fill="none" xmlns="http://www.w3.org/2000/svg">
<path d="M12.095 9.06929C11.5557 8.86954 11.0863 8.98939 10.6868 9.42884L9.69802 10.6273C8.29976 9.80836 7.19115 8.69975 6.37217 7.3015L7.57067 6.31273C8.01013 5.91323 8.12998 5.44382 7.93023 4.90449L6.49202 1.54869C6.37217 1.28901 6.18241 1.09925 5.92273 0.979399C5.68303 0.839574 5.42336 0.799623 5.14371 0.859549L1.7879 1.57865C1.18865 1.73845 0.869052 2.12796 0.829102 2.74719C0.849077 5.08427 1.3884 7.21161 2.44708 9.12921C3.48578 11.0468 4.90401 12.6248 6.70176 13.8633C8.49951 15.0818 10.537 15.8308 12.8141 16.1105C13.1137 16.1305 13.4134 16.1504 13.713 16.1704C13.8928 16.1704 14.0725 16.1704 14.2523 16.1704C14.8715 16.1305 15.2611 15.8208 15.4209 15.2416L16.14 11.8858C16.1999 11.5861 16.1699 11.3165 16.0501 11.0768C15.9103 10.8171 15.7105 10.6273 15.4508 10.5075L12.095 9.06929ZM14.0725 14.7322C11.8753 14.6723 9.89777 14.113 8.13996 13.0543C6.38216 12.0156 4.98391 10.6174 3.94521 8.85955C2.88653 7.10175 2.32723 5.1342 2.2673 2.95693L5.2336 2.29775L6.52199 5.32397L5.44333 6.19288C5.18366 6.43258 5.02386 6.72222 4.96393 7.0618C4.90401 7.3814 4.95395 7.701 5.11375 8.0206C6.07255 9.63858 7.36094 10.927 8.97891 11.8858C9.29852 12.0655 9.6281 12.1155 9.96768 12.0356C10.2873 11.9757 10.5669 11.8159 10.8066 11.5562L11.7055 10.4775L14.7018 11.7659L14.0725 14.7322Z" fill="#313131"/>
</svg>
