<svg width="17" height="19" viewBox="0 0 17 19" fill="none" xmlns="http://www.w3.org/2000/svg">
<path d="M8.34603 7.81248H5.00618L13.514 4.33201L10.0335 12.8398V9.49998C10.0101 9.03123 9.84603 8.63279 9.54134 8.30467C9.21322 7.99998 8.81478 7.83592 8.34603 7.81248ZM6.65853 9.49998H8.34603V11.1875V15.6875C8.3929 16.2734 8.69759 16.6367 9.26009 16.7773C9.84603 16.8711 10.2679 16.6484 10.5257 16.1094L15.5882 3.73435C15.7523 3.28904 15.6702 2.87889 15.3421 2.50389C14.9671 2.17576 14.557 2.09373 14.1117 2.25779L1.73665 7.32029C1.19759 7.5781 0.974935 7.99998 1.06868 8.58592C1.20931 9.14842 1.57259 9.4531 2.15853 9.49998H6.65853Z" fill="white"/>
</svg>
