<svg width="33" height="32" viewBox="0 0 33 32" fill="none" xmlns="http://www.w3.org/2000/svg">
<g clip-path="url(#clip0_291_197)">
<path d="M26.292 30.3089C26.5722 30.3087 26.8415 30.4175 27.043 30.6122C28.3595 31.8834 30.2799 32.3067 31.9871 31.7769C30.8884 29.488 30.7362 26.8658 31.5876 24.4378C32.6442 21.417 32.909 18.3892 31.7065 15.3525C30.65 12.6849 28.6113 10.4686 26.0311 9.20471C26.1903 10.0554 26.2702 10.9191 26.2698 11.7846C26.2699 15.4832 24.8476 18.9619 22.2653 21.5798C19.6826 24.1981 16.2206 25.6704 12.5171 25.7254C11.8317 25.736 11.1464 25.6962 10.4668 25.6065C12.5022 29.1742 16.3409 31.4979 20.5592 31.5604C22.4045 31.5889 24.1763 31.2023 25.8264 30.4144C25.9718 30.3449 26.1309 30.3088 26.292 30.3089Z" fill="black"/>
<path d="M12.5473 0.00235122C5.97734 -0.128104 0.515877 5.1869 0.500036 11.7555C0.496154 13.3603 0.809422 14.9163 1.4312 16.3803C1.44023 16.4016 1.44863 16.4232 1.45623 16.445C2.30764 18.873 2.15548 21.4952 1.05671 23.7841C2.76404 24.3137 4.68419 23.8907 6.00079 22.6193C6.15926 22.4663 6.36071 22.3653 6.57816 22.33C6.7956 22.2947 7.01865 22.3266 7.21742 22.4216C8.86724 23.2096 10.6393 23.5974 12.4845 23.5677C19.0031 23.4709 24.1092 18.2951 24.1091 11.7845C24.1092 5.4159 18.9225 0.13051 12.5473 0.00235122ZM6.00792 13.5444C5.064 13.5444 4.29877 12.7805 4.29877 11.8382C4.29877 10.8958 5.064 10.1319 6.00792 10.1319C6.95184 10.1319 7.71706 10.8958 7.71706 11.8382C7.71699 12.7805 6.95184 13.5444 6.00792 13.5444ZM12.3046 13.5444C11.3607 13.5444 10.5955 12.7805 10.5955 11.8382C10.5955 10.8958 11.3607 10.1319 12.3046 10.1319C13.2486 10.1319 14.0138 10.8958 14.0138 11.8382C14.0138 12.7805 13.2486 13.5444 12.3046 13.5444ZM18.6014 13.5444C17.6575 13.5444 16.8923 12.7805 16.8923 11.8382C16.8923 10.8958 17.6575 10.1319 18.6014 10.1319C19.5453 10.1319 20.3106 10.8958 20.3106 11.8382C20.3106 12.7805 19.5453 13.5444 18.6014 13.5444Z" fill="black"/>
</g>
<defs>
<clipPath id="clip0_291_197">
<rect width="32" height="32" fill="white" transform="translate(0.5)"/>
</clipPath>
</defs>
</svg>
