<svg width="32" height="32" viewBox="0 0 32 32" fill="none" xmlns="http://www.w3.org/2000/svg">
<path fill-rule="evenodd" clip-rule="evenodd" d="M25.6418 4.35975C22.8216 1.54983 19.0711 0.00164062 15.0754 0C6.84207 0 0.141279 6.66853 0.137982 14.8647C0.136852 17.4847 0.824565 20.0423 2.13179 22.2967L0.0126953 30L7.93126 27.9327C10.1131 29.1172 12.5696 29.7414 15.0693 29.7422H15.0756C23.3081 29.7422 30.0096 23.0731 30.0127 14.8766C30.0144 10.9043 28.4621 7.16953 25.6418 4.35975ZM15.0754 27.2316H15.0702C12.8426 27.2306 10.6577 26.6348 8.75124 25.5093L8.29813 25.2414L3.59911 26.4682L4.8533 21.9087L4.55798 21.4412C3.31519 19.4739 2.65889 17.2002 2.66002 14.8656C2.66261 8.05312 8.23224 2.51072 15.0804 2.51072C18.3966 2.5118 21.5138 3.79865 23.8578 6.13415C26.2018 8.46965 27.4919 11.574 27.4908 14.8756C27.4879 21.6886 21.9186 27.2316 15.0754 27.2316ZM21.8855 17.9776C21.5123 17.7916 19.6773 16.8933 19.335 16.7691C18.9932 16.6452 18.7441 16.5834 18.4955 16.9551C18.2466 17.3269 17.5314 18.1636 17.3136 18.4114C17.0957 18.6593 16.8783 18.6904 16.505 18.5044C16.1317 18.3186 14.9291 17.9262 13.5034 16.6607C12.394 15.6758 11.645 14.4594 11.4272 14.0878C11.2097 13.7157 11.4253 13.534 11.5909 13.3296C11.9949 12.8303 12.3995 12.3068 12.5239 12.0591C12.6484 11.8111 12.5861 11.5942 12.4926 11.4083C12.3995 11.2225 11.6531 9.39417 11.3421 8.65021C11.0389 7.92623 10.7315 8.02396 10.5022 8.01267C10.2848 8.00184 10.0359 7.99964 9.78693 7.99964C9.53814 7.99964 9.13374 8.09245 8.79155 8.46454C8.44951 8.83645 7.48546 9.73495 7.48546 11.5633C7.48546 13.3916 8.82283 15.1578 9.00939 15.4057C9.19591 15.6537 11.6413 19.4054 15.3852 21.0142C16.2757 21.3973 16.9708 21.6256 17.513 21.7968C18.4072 22.0795 19.2206 22.0396 19.8638 21.944C20.581 21.8373 22.0718 21.0454 22.3831 20.1778C22.6941 19.3101 22.6941 18.5665 22.6006 18.4114C22.5075 18.2565 22.2586 18.1636 21.8855 17.9776Z" fill="white"/>
</svg>
