<svg width="198" height="50" viewBox="0 0 198 50" fill="none" xmlns="http://www.w3.org/2000/svg">
<path d="M30.3388 38.4574C31.2835 38.3031 32.2394 38.2285 33.1966 38.2345C34.6626 38.2345 35.7372 38.5775 36.4202 39.189C36.7525 39.493 37.0147 39.8657 37.1884 40.2813C37.3622 40.6968 37.4433 41.1452 37.4261 41.5953C37.4481 42.043 37.3808 42.4905 37.2283 42.912C37.0757 43.3334 36.8408 43.7203 36.5373 44.0501C35.7543 44.8846 34.474 45.3104 33.0251 45.3104C32.6254 45.3228 32.2255 45.2892 31.8334 45.2104V49.8114H30.3503L30.3388 38.4574ZM31.822 43.9987C32.224 44.0898 32.6359 44.1301 33.048 44.1187C34.8398 44.1187 35.9315 43.2471 35.9315 41.661C35.9315 40.1464 34.857 39.4119 33.2195 39.4119C32.7506 39.3987 32.2817 39.439 31.822 39.532V43.9987Z" fill="#4CB2E2"/>
<path d="M45.3593 44.4245H40.8926V48.5683H45.8709V49.8114H39.4094V38.3203H45.6137V39.5663H40.8926V43.1985H45.3593V44.4245Z" fill="#4CB2E2"/>
<path d="M50.2518 39.5834H46.7568V38.3203H55.2758V39.5834H51.7522V49.8114H50.2518V39.5834Z" fill="#4CB2E2"/>
<path d="M59.9511 48.0053C60.7555 48.4873 61.674 48.7457 62.6117 48.754C64.1292 48.754 65.0151 47.9538 65.0151 46.7936C65.0151 45.7219 64.4007 45.1075 62.8518 44.5074C60.9742 43.8415 59.8168 42.8698 59.8168 41.2495C59.8168 39.4605 61.3 38.1317 63.5319 38.1317C64.4134 38.1053 65.2872 38.3019 66.0725 38.7032L65.6638 39.912C64.9929 39.551 64.2424 39.3634 63.4805 39.3662C61.9116 39.3662 61.3172 40.3036 61.3172 41.0809C61.3172 42.1554 62.0145 42.6841 63.6034 43.2957C65.5467 44.0473 66.5354 44.9846 66.5354 46.6735C66.5354 48.4454 65.2237 49.98 62.5117 49.98C61.4029 49.98 60.194 49.6571 59.5796 49.2455L59.9511 48.0053Z" fill="#4CB2E2"/>
<path d="M74.5115 44.4245H70.0448V48.5683H75.0231V49.8114H68.5616V38.3203H74.7687V39.5663H70.0448V43.1985H74.5115V44.4245Z" fill="#4CB2E2"/>
<path d="M84.9795 49.437C84.018 49.8321 82.9835 50.0182 81.9446 49.9828C78.7067 49.9828 76.269 47.9367 76.269 44.1701C76.269 40.5722 78.7067 38.1345 82.2703 38.1345C83.6992 38.1345 84.6052 38.4403 84.9967 38.646L84.6394 39.8549C83.9114 39.5274 83.12 39.3644 82.3218 39.3776C79.6269 39.3776 77.8379 41.0923 77.8379 44.1187C77.8379 46.9307 79.4554 48.7369 82.2532 48.7369C83.0846 48.7498 83.9094 48.5871 84.6737 48.2596L84.9795 49.437Z" fill="#4CB2E2"/>
<path d="M88.3203 38.3203V45.1246C88.3203 47.6966 89.4634 48.7883 90.998 48.7883C92.7127 48.7883 93.7958 47.6652 93.7958 45.1246V38.3203H95.2847V45.0218C95.2847 48.5511 93.4243 50 90.9351 50C88.5832 50 86.8085 48.654 86.8085 45.0903V38.3203H88.3203Z" fill="#4CB2E2"/>
<path d="M97.8567 38.4832C98.7997 38.3144 99.7565 38.234 100.714 38.2431C102.301 38.2431 103.324 38.5289 104.038 39.1833C104.335 39.4615 104.569 39.7999 104.725 40.176C104.881 40.552 104.955 40.957 104.941 41.3638C104.949 42.0215 104.742 42.6639 104.352 43.1932C103.961 43.7225 103.409 44.1097 102.778 44.2959V44.3473C103.664 44.656 104.192 45.4733 104.464 46.6678C104.841 48.2682 105.113 49.377 105.353 49.8114H103.818C103.629 49.4885 103.372 48.4997 103.049 47.0679C102.709 45.4818 102.095 44.8846 100.763 44.8331H99.3627V49.8114H97.8567V38.4832ZM99.3399 43.7157H100.857C102.443 43.7157 103.449 42.8584 103.449 41.5353C103.449 40.0521 102.375 39.4034 100.809 39.3862C100.315 39.3723 99.8222 39.4184 99.3399 39.5234V43.7157Z" fill="#4CB2E2"/>
<path d="M108.525 38.3203V49.8114H107.042V38.3203H108.525Z" fill="#4CB2E2"/>
<path d="M113.289 39.5834H109.805V38.3203H118.313V39.5834H114.8V49.8114H113.289V39.5834Z" fill="#4CB2E2"/>
<path d="M122.625 49.8114V44.936L119.004 38.3203H120.693L122.314 41.4924C122.757 42.3497 123.097 43.0613 123.457 43.8615H123.491C123.817 43.1128 124.208 42.3612 124.651 41.4924L126.306 38.3203H127.992L124.14 44.9189V49.8114H122.625Z" fill="#4CB2E2"/>
<path d="M134.388 39.5834H130.893V38.3203H139.403V39.5834H135.888V49.8114H134.388V39.5834Z" fill="#4CB2E2"/>
<path d="M141.261 46.1992L140.066 49.8114H138.531L142.438 38.3203H144.23L148.154 49.8114H146.568L145.336 46.1992H141.261ZM145.027 45.0389L143.901 41.7296C143.647 40.9809 143.475 40.3007 143.307 39.6349H143.272C143.101 40.315 142.912 41.0151 142.701 41.7124L141.581 45.0389H145.027Z" fill="#4CB2E2"/>
<path d="M158.327 49.2998C157.195 49.7079 156.002 49.9215 154.798 49.9314C153.058 49.9314 151.626 49.4885 150.511 48.4139C149.522 47.4594 148.908 45.9248 148.908 44.1273C148.925 40.6979 151.28 38.1917 155.132 38.1917C156.111 38.1702 157.084 38.3502 157.99 38.7204L157.633 39.9321C156.833 39.5823 155.965 39.4135 155.092 39.4377C152.297 39.4377 150.471 41.178 150.471 44.0587C150.471 46.9393 152.229 48.6968 154.904 48.6968C155.878 48.6968 156.541 48.5597 156.884 48.3882V44.9589H154.546V43.7643H158.327V49.2998Z" fill="#4CB2E2"/>
<path d="M37.0146 32.719H31.4733V3.37823H37.0146V32.719Z" fill="#FDD30F"/>
<path d="M49.1716 21.4479V16.3268H57.602V18.8988C57.462 28.1209 54.4813 32.7304 48.7058 32.7304C42.7902 32.7304 39.8095 27.8408 39.8095 18.0615C39.8095 8.28216 42.7902 3.38965 48.7058 3.38965C53.5497 3.38965 56.3903 6.46176 57.2791 12.6117H51.6864C51.1149 9.491 50.2432 8.51364 48.7058 8.51364C47.5398 8.51364 46.7053 9.21093 46.1338 10.5627C45.6222 11.9115 45.3421 14.3807 45.3421 18.0615C45.3421 21.7423 45.6279 24.2543 46.1338 25.606C46.7053 26.9577 47.5312 27.6065 48.7058 27.6065C50.569 27.6065 51.5921 26.1604 51.9665 21.4565L49.1716 21.4479Z" fill="#FDD30F"/>
<path d="M65.9382 32.719H60.3969V3.37823H65.9382V32.719Z" fill="#FDD30F"/>
<path d="M68.7331 8.50222V3.37823H84.2422V8.50222H79.2583V32.719H73.717V8.50222H68.7331Z" fill="#FDD30F"/>
<path d="M89.3205 32.719H83.7764L88.3889 3.37823H96.9108L101.523 32.719H95.9791L95.2847 28.3895H89.9721L89.3205 32.719ZM92.627 11.5286L90.8094 23.2655H94.4902L92.627 11.5286Z" fill="#FDD30F"/>
<path d="M103.386 32.719V3.37823H108.928V27.5979H117.964V32.719H103.386Z" fill="#FDD30F"/>
<path d="M121.039 8.86515V3.74115H136.548V8.86515H131.578V33.0848H126.023V8.86515H121.039Z" fill="#FDD30F"/>
<path d="M141.626 33.0848H136.082L140.695 3.74115H149.217L153.829 33.0848H148.285L147.582 28.7667H142.278L141.626 33.0848ZM144.933 11.9058L143.115 23.6227H146.796L144.933 11.9058Z" fill="#FDD30F"/>
<path d="M161.699 33.0848H156.155V3.74115H161.699V33.0848Z" fill="#FDD30F"/>
<path d="M164.96 33.0848V3.74115H170.501V27.9608H179.538V33.0848H164.96Z" fill="#FDD30F"/>
<path d="M189.591 33.0848C184.699 33.0848 181.672 30.5128 181.672 25.4917V23.4427H187.214V24.8859C187.214 26.9339 188.006 27.9589 189.591 27.9608C191.22 27.9608 192.012 27.1235 192.012 25.4917C192.012 23.8142 190.383 22.0452 188.334 20.5077C185.476 18.273 181.718 15.4323 181.718 11.2857C181.718 6.39603 184.793 3.74115 189.591 3.74115C194.901 3.74115 197.556 6.44176 197.556 11.8001V13.3833H192.02V11.9373C192.02 9.88823 191.229 8.86515 189.6 8.86515C188.017 8.86515 187.224 9.65676 187.222 11.24C187.222 12.8689 188.854 14.455 190.857 15.9439C193.789 17.9929 197.61 20.9278 197.565 25.5374C197.565 30.5214 194.45 33.0848 189.591 33.0848Z" fill="#FDD30F"/>
<path d="M9.73425 33.0534C8.05388 33.0534 6.3735 33.1105 4.69599 33.0534C3.47062 33.0027 2.30884 32.4943 1.44024 31.6285C0.571641 30.7627 0.059438 29.6025 0.00485717 28.3773C-0.0497236 27.1521 0.357288 25.951 1.14546 25.0114C1.93363 24.0718 3.0456 23.462 4.26161 23.3026C5.74194 23.0912 6.87076 23.477 7.27942 25.2259C7.5071 26.1573 8.07885 26.9679 8.87978 27.495C10.6202 28.7095 12.492 29.0725 14.4696 28.1208C15.0018 27.8859 15.4634 27.516 15.8087 27.0479C16.1541 26.5797 16.3712 26.0295 16.4386 25.4517C16.5215 24.8515 16.8587 24.5944 17.5303 24.5458C18.9789 24.4974 20.3633 23.9364 21.4369 22.9626C22.2031 22.292 22.6878 21.3568 22.7938 20.3441C22.8997 19.3314 22.6192 18.316 22.0084 17.5013C21.5169 16.8069 21.4369 16.3325 21.8884 15.7867C23.6259 13.5948 22.9029 10.4655 19.9051 9.15092C19.1578 8.86014 18.3758 8.668 17.5789 8.57936C16.8044 8.45933 16.5501 8.27644 16.4214 7.49341C16.347 7.05144 16.1834 6.62923 15.9407 6.25243C15.6981 5.87562 15.3813 5.5521 15.0097 5.3015C12.6349 3.58683 8.7226 4.63277 7.4909 7.28479C7.39472 7.47211 7.3227 7.67089 7.27656 7.87635C6.99078 9.42241 5.83053 10.1026 4.16159 9.78249C1.47813 9.26523 -0.222244 7.04188 0.032098 4.43558C0.283582 1.89502 2.42977 0.0260375 5.11037 0.020322C8.05102 0.020322 10.9917 -0.0254025 13.9295 0.020322C17.9904 0.0946242 21.2339 1.90931 23.7545 5.00143C27.0524 9.04232 28.1955 13.7491 27.5925 18.8674C27.0381 23.577 25.0548 27.5722 21.2282 30.51C18.941 32.2923 16.0949 33.2038 13.1979 33.0819C12.0548 33.0505 10.8888 33.0819 9.73425 33.0819V33.0534Z" fill="#FDD30F"/>
<path d="M12.4463 16.9841C12.4185 18.2836 11.9579 19.5368 11.1374 20.5449C9.59422 22.4053 7.26799 22.3224 5.8391 20.3677C4.32734 18.3015 4.28733 14.9579 5.74765 12.8518C7.30228 10.6141 9.96859 10.6656 11.4489 12.9632C12.1234 14.0092 12.452 15.1951 12.4463 16.9841Z" fill="#4CB2E2"/>
<path d="M17.133 22.974C15.887 22.974 14.7468 22.6511 13.8409 21.7451C12.7349 20.642 12.7378 19.1731 13.8409 18.0643C15.4355 16.4182 18.8363 16.4154 20.4423 18.0643C21.674 19.3246 21.494 21.0679 20.0108 22.1252C19.1703 22.7155 18.1593 23.0136 17.133 22.974Z" fill="#4CB2E2"/>
<path d="M16.6472 16.2554C16.0747 16.2395 15.5118 16.1042 14.9946 15.8581C14.4773 15.6121 14.0172 15.2607 13.6437 14.8265C13.2176 14.3513 12.9936 13.7288 13.0192 13.0911C13.0448 12.4534 13.3181 11.8509 13.7809 11.4114C15.3841 9.75106 18.6591 9.67676 20.3366 11.2628C21.6712 12.5231 21.514 14.3549 19.9708 15.4295C19.1278 16.0039 18.1819 16.2639 16.6472 16.2554Z" fill="#4CB2E2"/>
<path d="M12.5206 6.01023C13.0115 6.12028 13.4902 6.27921 13.9495 6.48462C14.1671 6.599 14.3596 6.75589 14.5155 6.94602C14.6715 7.13614 14.7876 7.35563 14.8572 7.59147C14.9268 7.82731 14.9483 8.07471 14.9205 8.31902C14.8927 8.56333 14.8161 8.79957 14.6953 9.01375C13.838 10.7113 11.1946 11.4371 9.60279 10.4055C9.37691 10.2702 9.18151 10.0896 9.0289 9.87507C8.87629 9.66053 8.76977 9.4167 8.71608 9.15895C8.66238 8.9012 8.66266 8.63512 8.7169 8.37749C8.77114 8.11985 8.87817 7.87624 9.03123 7.66202C9.77997 6.53034 10.8945 6.08167 12.5206 6.01023Z" fill="#4CB2E2"/>
<path d="M11.266 22.2081C12.5692 22.2453 13.618 22.6482 14.3924 23.6084C15.3584 24.803 14.964 26.3147 13.5094 26.832C12.8445 27.0892 12.1203 27.1521 11.421 27.0135C10.7218 26.8749 10.0763 26.5404 9.55993 26.049C8.89121 25.4774 8.49683 24.7344 8.75117 23.8142C9.00552 22.894 9.71711 22.491 10.5802 22.2938C10.8069 22.252 11.0359 22.2234 11.266 22.2081Z" fill="#4CB2E2"/>
</svg>
